<svg xmlns="http://www.w3.org/2000/svg" id="Layer_1" data-name="Layer 1" viewBox="0 0 44.12 44.14">
  <defs>
    <style>
      .cls-1 {
        fill: #dd9b27;
      }
    </style>
  </defs>
  <path class="cls-1" d="m44.12,18.73c-.13,5.67-2.27,10.41-6.54,14.17-.45.4-.86.84-1.29,1.27-.72.72-1.44,1.44-2.16,2.17-.45.45-.92.88-1.33,1.35-2.66,3.02-5.96,4.99-9.86,5.95-1.91.47-3.87.61-5.82.43-3.47-.32-6.66-1.48-9.46-3.58-3.98-2.98-6.51-6.91-7.35-11.81-1.02-5.91.53-11.15,4.45-15.67.57-.66,1.26-1.23,1.89-1.85.37-.36.73-.73,1.09-1.09.71-.72,1.42-1.43,2.13-2.15.56-.57,1.14-1.13,1.68-1.72C14.29,3.18,17.64,1.25,21.63.4,23.51,0,25.42-.11,27.33.11c4.48.51,8.34,2.36,11.49,5.59,2.52,2.59,4.15,5.67,4.89,9.22.26,1.25.42,2.52.4,3.81Zm-25.42,24.15c9.64-.05,17.51-7.72,17.45-17.58-.06-9.57-7.67-17.29-17.39-17.33-9.69-.03-17.51,7.66-17.5,17.48.01,9.72,7.81,17.35,17.44,17.42ZM15.29,4.55c7.51-2.47,14.2-1.14,19.99,4.31,5.45,5.8,6.76,12.49,4.28,20,4.68-6.35,4.43-15.6-1.2-21.83C32.28.31,22.28-.52,15.29,4.55Zm20.88,27.74c4.85-6.5,4.76-16.77-2.51-23.25-7.03-6.26-16.49-5.17-21.76-1.1,7.57-2.51,14.39-1.32,20.01,4.32,5.64,5.65,6.77,12.48,4.26,20.03Z"/>
  <path class="cls-1" d="m22.52,40.28c-.34,0-.63-.31-.62-.65,0-.32.29-.6.61-.6.34,0,.64.3.65.64,0,.31-.31.61-.64.61Z"/>
  <path class="cls-1" d="m32.95,20.98c.33,0,.63.3.63.65,0,.28-.35.6-.66.61-.32,0-.62-.3-.63-.63,0-.33.3-.62.66-.63Z"/>
  <path class="cls-1" d="m6.58,32.77c0,.33-.31.64-.65.64-.31,0-.6-.29-.6-.61,0-.35.29-.65.63-.65.34,0,.62.29.63.62Z"/>
  <path class="cls-1" d="m32.92,28.6c.33,0,.67.33.66.64,0,.3-.34.62-.65.62-.34,0-.64-.32-.63-.66,0-.32.3-.6.62-.6Z"/>
  <path class="cls-1" d="m31.47,17.42c.31,0,.63.31.63.62,0,.32-.29.62-.62.63-.35,0-.65-.28-.65-.63,0-.31.32-.62.64-.62Z"/>
  <path class="cls-1" d="m33.45,24.79c.34,0,.63.3.62.65,0,.3-.31.59-.62.6-.34,0-.63-.27-.63-.61,0-.36.27-.64.63-.64Z"/>
  <path class="cls-1" d="m5.94,17.42c.33,0,.65.32.64.65,0,.34-.31.61-.67.61-.28,0-.6-.34-.6-.63,0-.29.33-.63.63-.63Z"/>
  <path class="cls-1" d="m4.47,28.6c.32,0,.62.29.63.62.01.32-.29.62-.62.63-.34.01-.63-.29-.64-.64,0-.34.27-.6.63-.61Z"/>
  <path class="cls-1" d="m10.72,38.19c0-.35.26-.64.6-.65.35-.01.65.29.66.67,0,.31-.28.58-.62.59-.34.01-.63-.26-.63-.6Z"/>
  <path class="cls-1" d="m3.84,21.58c0-.33.29-.6.64-.6.32,0,.62.3.61.63,0,.33-.29.62-.63.61-.35,0-.63-.29-.62-.65Z"/>
  <path class="cls-1" d="m8.91,35.86c0,.32-.29.61-.6.61-.34,0-.66-.34-.65-.67.01-.29.33-.58.64-.58.36,0,.62.28.61.65Z"/>
  <path class="cls-1" d="m25.45,12.65c0-.35.25-.61.59-.62.32,0,.66.31.66.64,0,.3-.34.63-.64.63-.34,0-.61-.29-.61-.64Z"/>
  <path class="cls-1" d="m14.91,40.28c-.33,0-.65-.32-.64-.64,0-.33.3-.62.64-.61.32,0,.62.31.62.63,0,.33-.29.62-.61.62Z"/>
  <path class="cls-1" d="m26.7,38.19c0,.31-.31.61-.61.61-.34,0-.65-.32-.64-.65.02-.34.31-.62.64-.61.32,0,.62.32.61.65Z"/>
  <path class="cls-1" d="m15.52,11.19c0,.31-.31.63-.63.62-.32,0-.61-.31-.62-.64,0-.29.31-.62.6-.63.32,0,.64.32.64.65Z"/>
  <path class="cls-1" d="m3.37,25.4c0-.35.26-.61.62-.61.32,0,.63.31.63.62,0,.31-.31.62-.64.62-.33,0-.6-.28-.61-.63Z"/>
  <path class="cls-1" d="m31.47,33.4c-.34,0-.64-.3-.64-.64,0-.32.31-.62.64-.61.3,0,.63.34.64.64,0,.3-.32.62-.64.62Z"/>
  <path class="cls-1" d="m19.33,10.72c-.01.33-.32.6-.66.58-.32-.02-.58-.31-.58-.64,0-.32.33-.64.63-.62.35.03.62.32.6.67Z"/>
  <path class="cls-1" d="m18.71,40.76c-.33,0-.63-.29-.63-.61,0-.32.3-.63.63-.63.33,0,.62.31.62.66,0,.33-.28.58-.61.58Z"/>
  <path class="cls-1" d="m23.15,11.17c0,.34-.32.66-.65.64-.32-.01-.6-.32-.6-.66,0-.3.32-.62.62-.61.33,0,.63.3.63.62Z"/>
  <path class="cls-1" d="m29.14,35.21c.32,0,.62.3.63.63,0,.27-.34.62-.61.63-.33,0-.65-.31-.65-.64,0-.34.27-.61.63-.61Z"/>
  <path class="cls-1" d="m11.36,13.29c-.34,0-.64-.29-.64-.65,0-.3.31-.61.62-.61.32,0,.62.29.64.62.01.33-.28.63-.61.64Z"/>
  <path class="cls-1" d="m28.52,15.02c0-.34.3-.67.63-.67.27,0,.6.35.61.63.01.3-.3.63-.62.64-.37,0-.61-.23-.62-.6Z"/>
  <path class="cls-1" d="m8.9,14.99c0,.36-.24.61-.61.62-.32,0-.64-.3-.64-.62,0-.28.34-.62.62-.62.33,0,.63.29.63.62Z"/>
  <path class="cls-1" d="m23.6,20.67c-1.39-1.26-2.94-1.65-4.66-1.1-1.66.53-2.82,1.66-3.73,3.24h6.41c-.21.76-.4,1.44-.6,2.15h-6.58c-.06.51-.11,1-.17,1.56h6.31c-.2.71-.34,1.35-.56,1.96-.04.12-.36.18-.55.19-1.56.01-3.12,0-4.79,0,.53,1.4,1.32,2.49,2.67,3.03,2.42.97,4.34,0,6.09-1.75.21.73.42,1.39.57,2.07.03.14-.15.39-.3.51-3.85,3.15-9.2,1.69-10.96-2.97-.1-.28-.19-.56-.3-.89h-2.57c.18-.65.31-1.24.52-1.82.05-.14.3-.29.47-.3.41-.04.83-.01,1.31-.01.04-.53.07-1.02.11-1.57h-1.36c.19-.68.33-1.29.54-1.88.05-.13.35-.27.51-.24.71.1,1.02-.23,1.33-.84,1.26-2.45,3.17-4.16,5.95-4.67,1.63-.3,3.18,0,4.61.86.31.19.4.37.28.72-.19.56-.34,1.13-.52,1.76Z"/>
</svg>