<?xml version="1.0" encoding="UTF-8"?>
<svg id="Layer_1" data-name="Layer 1" xmlns="http://www.w3.org/2000/svg" viewBox="0 0 47.11 47.14">
  <defs>
    <style>
      .cls-1 {
        fill: #ad485e;
      }
    </style>
  </defs>
  <path class="cls-1" d="m47.11,20c-.14,6.05-2.42,11.12-6.98,15.13-.48.43-.92.9-1.38,1.36-.77.77-1.54,1.54-2.31,2.31-.48.48-.98.94-1.42,1.44-2.84,3.23-6.36,5.33-10.53,6.35-2.04.5-4.13.65-6.21.46-3.71-.34-7.11-1.58-10.11-3.82-4.25-3.18-6.95-7.38-7.85-12.61-1.08-6.31.57-11.9,4.75-16.74.61-.71,1.34-1.32,2.01-1.98.39-.38.78-.78,1.16-1.17.76-.77,1.52-1.53,2.28-2.3.6-.61,1.21-1.21,1.79-1.84C15.26,3.4,18.84,1.33,23.1.43,25.11,0,27.14-.12,29.19.12c4.79.55,8.91,2.52,12.27,5.97,2.69,2.76,4.43,6.06,5.22,9.84.28,1.34.45,2.69.43,4.07Zm-27.15,25.79c10.29-.05,18.7-8.24,18.64-18.77-.06-10.22-8.19-18.47-18.57-18.5-10.35-.04-18.7,8.18-18.69,18.67.01,10.38,8.33,18.53,18.62,18.6Zm-3.64-40.93c8.02-2.64,15.16-1.22,21.35,4.6,5.82,6.2,7.21,13.34,4.57,21.36,5-6.78,4.73-16.66-1.28-23.31C34.48.33,23.79-.55,16.33,4.86Zm22.29,29.63c5.17-6.94,5.08-17.91-2.68-24.83-7.5-6.69-17.61-5.52-23.24-1.18,8.08-2.68,15.36-1.41,21.37,4.61,6.02,6.03,7.23,13.33,4.55,21.39Z"/>
  <path class="cls-1" d="m24.05,43.01c-.36,0-.67-.33-.67-.7,0-.35.3-.64.65-.64.36,0,.69.32.69.69,0,.33-.33.65-.68.65Z"/>
  <path class="cls-1" d="m35.19,22.41c.36,0,.67.32.67.69,0,.3-.37.64-.7.65-.34,0-.67-.32-.67-.67,0-.36.32-.66.7-.67Z"/>
  <path class="cls-1" d="m7.02,35c0,.36-.33.68-.7.68-.33,0-.64-.31-.64-.65,0-.38.31-.7.67-.7.36,0,.67.31.67.67Z"/>
  <path class="cls-1" d="m35.15,30.54c.35,0,.71.35.71.69,0,.32-.37.66-.7.66-.36,0-.69-.35-.68-.7,0-.34.32-.64.66-.64Z"/>
  <path class="cls-1" d="m33.6,18.6c.33,0,.67.33.68.67,0,.35-.3.66-.66.67-.37,0-.69-.3-.69-.68,0-.33.34-.66.68-.66Z"/>
  <path class="cls-1" d="m35.72,26.48c.37,0,.67.32.67.69,0,.32-.33.63-.66.64-.36,0-.67-.29-.68-.65,0-.38.29-.68.68-.68Z"/>
  <path class="cls-1" d="m6.34,18.6c.35,0,.69.34.68.69,0,.36-.33.65-.72.65-.29,0-.64-.36-.64-.67,0-.31.35-.67.68-.67Z"/>
  <path class="cls-1" d="m4.77,30.55c.34,0,.66.31.67.66.01.34-.31.66-.66.67-.36.01-.68-.31-.68-.69,0-.36.29-.64.67-.65Z"/>
  <path class="cls-1" d="m11.45,40.79c0-.38.27-.68.64-.69.37-.01.7.31.7.71,0,.33-.3.62-.66.63-.36.01-.67-.28-.68-.64Z"/>
  <path class="cls-1" d="m4.1,23.04c0-.35.31-.64.68-.64.35,0,.66.32.66.68,0,.36-.31.66-.67.65-.38,0-.67-.31-.67-.69Z"/>
  <path class="cls-1" d="m9.51,38.3c0,.34-.31.65-.64.65-.36,0-.71-.36-.69-.72.01-.31.35-.62.68-.62.38,0,.66.3.66.69Z"/>
  <path class="cls-1" d="m27.18,13.51c0-.37.26-.65.63-.66.35-.01.71.34.71.68,0,.32-.36.67-.68.67-.36,0-.65-.31-.65-.69Z"/>
  <path class="cls-1" d="m15.92,43.01c-.36,0-.69-.34-.68-.69,0-.35.33-.66.68-.66.35,0,.66.33.66.68,0,.36-.31.67-.66.67Z"/>
  <path class="cls-1" d="m28.51,40.78c0,.33-.34.66-.65.66-.36,0-.7-.34-.68-.69.02-.36.33-.66.69-.65.34,0,.66.34.65.69Z"/>
  <path class="cls-1" d="m16.57,11.95c0,.33-.33.67-.67.67-.34,0-.65-.33-.66-.69,0-.31.33-.66.65-.67.34-.01.69.34.69.69Z"/>
  <path class="cls-1" d="m3.59,27.13c0-.37.28-.65.66-.65.34,0,.67.33.67.67,0,.33-.33.66-.68.66-.35,0-.64-.3-.65-.68Z"/>
  <path class="cls-1" d="m33.61,35.67c-.36,0-.68-.32-.68-.69,0-.34.33-.66.68-.65.32,0,.67.36.68.68,0,.32-.35.66-.68.66Z"/>
  <path class="cls-1" d="m20.64,11.45c-.01.35-.34.64-.7.62-.34-.02-.62-.33-.62-.68,0-.35.35-.68.68-.66.38.03.66.34.65.72Z"/>
  <path class="cls-1" d="m19.99,43.53c-.35,0-.67-.31-.67-.66,0-.35.32-.67.67-.67.35,0,.66.33.66.71,0,.35-.3.62-.66.62Z"/>
  <path class="cls-1" d="m24.72,11.93c0,.36-.34.7-.69.69-.34-.01-.65-.34-.64-.7,0-.32.34-.66.66-.65.35,0,.68.33.68.66Z"/>
  <path class="cls-1" d="m31.11,37.6c.34,0,.67.32.67.67,0,.29-.36.66-.65.67-.35,0-.69-.33-.69-.69,0-.36.29-.65.67-.66Z"/>
  <path class="cls-1" d="m12.13,14.19c-.37,0-.69-.31-.69-.69,0-.32.33-.65.66-.66.35,0,.67.31.68.66.01.35-.3.68-.65.68Z"/>
  <path class="cls-1" d="m30.45,16.04c0-.36.32-.71.67-.71.28,0,.64.37.65.68.01.32-.32.67-.66.68-.39,0-.66-.25-.66-.64Z"/>
  <path class="cls-1" d="m9.51,16c0,.39-.25.65-.66.66-.34,0-.68-.32-.68-.66,0-.3.36-.66.66-.66.35,0,.67.31.67.66Z"/>
  <path class="cls-1" d="m25.2,22.07c-1.49-1.34-3.14-1.76-4.98-1.18-1.77.56-3.01,1.77-3.99,3.46h6.84c-.23.81-.43,1.54-.64,2.29h-7.03c-.06.55-.12,1.07-.19,1.66h6.73c-.21.76-.37,1.44-.6,2.1-.04.12-.38.2-.59.2-1.66.02-3.33,0-5.12,0,.56,1.5,1.41,2.66,2.85,3.23,2.58,1.04,4.64,0,6.5-1.87.22.78.45,1.49.61,2.21.03.15-.16.42-.32.55-4.11,3.36-9.83,1.81-11.7-3.17-.11-.3-.21-.6-.32-.95h-2.75c.19-.69.34-1.33.55-1.94.05-.15.32-.3.5-.32.44-.05.89-.02,1.4-.02.04-.57.08-1.09.12-1.67h-1.46c.2-.72.35-1.38.57-2.01.05-.14.37-.29.55-.26.76.11,1.09-.24,1.42-.9,1.35-2.62,3.38-4.44,6.36-4.99,1.74-.32,3.39,0,4.92.92.33.2.43.39.3.77-.21.59-.36,1.21-.56,1.88Z"/>
</svg>