<?xml version="1.0" encoding="UTF-8"?>
<svg id="Layer_1" data-name="Layer 1" xmlns="http://www.w3.org/2000/svg" xmlns:xlink="http://www.w3.org/1999/xlink" viewBox="0 0 86.18 123.95">
  <defs>
    <style>
      .cls-1 {
        fill: url(#linear-gradient);
      }

      .cls-2 {
        fill: #fff;
      }

      .cls-3 {
        fill: url(#linear-gradient-3);
      }

      .cls-4 {
        fill: url(#linear-gradient-4);
      }

      .cls-5 {
        fill: url(#linear-gradient-2);
      }

      .cls-6 {
        fill: url(#linear-gradient-6);
      }

      .cls-7 {
        fill: url(#linear-gradient-5);
      }
    </style>
    <linearGradient id="linear-gradient" x1="53.15" y1="33.03" x2="57.99" y2="33.03" gradientUnits="userSpaceOnUse">
      <stop offset=".02" stop-color="#17204d"/>
      <stop offset=".32" stop-color="#223e7b"/>
      <stop offset=".52" stop-color="#090c10"/>
      <stop offset=".74" stop-color="#223e7b"/>
      <stop offset="1" stop-color="#010101"/>
    </linearGradient>
    <linearGradient id="linear-gradient-2" x1="24.11" y1="34.74" x2="25.67" y2="34.74" xlink:href="#linear-gradient"/>
    <linearGradient id="linear-gradient-3" x1="28.25" y1="14.1" x2="35.35" y2="14.1" xlink:href="#linear-gradient"/>
    <linearGradient id="linear-gradient-4" x1="0" y1="61.98" x2="86.18" y2="61.98" xlink:href="#linear-gradient"/>
    <linearGradient id="linear-gradient-5" x1="29.17" y1="38.88" x2="29.7" y2="38.88" xlink:href="#linear-gradient"/>
    <linearGradient id="linear-gradient-6" x1="33.41" y1="39.7" x2="34.7" y2="39.7" xlink:href="#linear-gradient"/>
  </defs>
  <g>
    <path class="cls-2" d="m66.28,26.24c-.07-.37-.11-.74-.22-1.09-.89-3.03-1.93-6.01-3.22-8.89-.27-.6-.53-1.23-.5-1.91.04-.03.07-.06.11-.09.15.16.34.3.45.49,1.42,2.35,2.7,4.75,3.51,7.39.07.22.17.43.27.64.01.03.06.05.17.06-.19-.79-.36-1.58-.59-2.36-.63-2.19-1.6-4.24-2.72-6.22-.58-1.02-1.14-2.06-1.29-3.26-.04-.31-.06-.63-.08-.94-.03-.74-.35-1.34-.87-1.84-1.04-1.01-2.32-1.54-3.69-1.95-1.38-.42-2.69-.19-3.97.28-.88.33-1.52.96-1.72,1.94-.04.21-.12.42-.2.68-.15-.08-.29-.12-.4-.21-1.61-1.25-3.47-1.87-5.44-2.24-1.49-.28-2.96-.68-4.46-.86-1.13-.13-2.29.01-3.44,0-1.69-.01-3.39-.04-5.08-.09-.35,0-.69-.11-1.1-.18.1-.09.14-.15.19-.17,1.21-.53,2.41-1.11,3.65-1.58,1.08-.4,2.24-.33,3.37-.37,2.71-.11,5.41-.23,8.11-.35,1.44-.06,2.82.24,4.19.65,2.24.66,4.49,1.31,6.73,1.96.22.06.45.09.67.14.02-.04.04-.08.05-.12-.25-.13-.5-.27-.76-.38-2.17-.86-4.43-1.4-6.7-1.88-2.34-.5-4.7-.9-7.1-1.03-.98-.06-1.97-.03-2.95-.04-.17,0-.34-.03-.51-.04-.01-.04-.02-.08-.03-.12.14-.07.28-.16.43-.2,2.83-.76,5.7-.99,8.62-.83,2.95.16,5.78.82,8.52,1.92,3.05,1.22,5.06,3.38,6.07,6.48.7,2.13,1.32,4.28,1.98,6.42.09.3.26.58.43.96.28-.51.16-.89.03-1.25-.35-.98-.72-1.95-1.07-2.92-.09-.24-.16-.49-.24-.73.03-.02.06-.04.09-.06.11.14.24.26.33.41,1.36,2.08,2.33,4.36,3.29,6.64.44,1.05.88,2.09,1.32,3.14.05.12.12.24.17.35.03-.01.07-.02.1-.03-.24-1.05-.48-2.11-.72-3.16.04-.02.08-.03.12-.05.27.43.53.87.82,1.34.07-.1.11-.17.18-.28.34.82.65,1.58.97,2.34.02,0,.04-.01.06-.02-.1-.55-.21-1.09-.31-1.64.02-.01.05-.03.07-.04.09.12.19.23.27.35.73,1.14,1.15,2.41,1.49,3.71.66,2.53,1.35,5.04,2.03,7.56.06.24.22.52-.25.52,1.44,4.01,2.86,7.96,4.28,11.91-.06.02-.11.05-.17.07-.94-1.74-1.63-3.61-2.64-5.33.07.2.13.41.21.61.89,2.41,1.78,4.82,2.65,7.23.21.57.32,1.18.48,1.77-.06.02-.12.05-.19.07-.61-1.4-1.22-2.79-1.83-4.19-.04.01-.08.02-.11.03.04.19.07.39.13.57.51,1.53,1.06,3.05,1.53,4.59.64,2.13.58,4.3.08,6.45-1.65,7.1-3.61,14.11-6.15,20.95-2.84,7.64-6.55,14.82-11.45,21.36-4.79,6.39-10.42,11.92-16.96,16.51-.39.27-.76.57-1.2.9.18.12.32.23.48.33,2.74,1.65,5.49,3.3,8.23,4.94.15.09.3.19.44.3.19.15.35.34.18.6-.18.25-.42.35-.72.19-.31-.17-.61-.36-.92-.54-2.74-1.64-5.49-3.28-8.23-4.94-.31-.19-.53-.18-.84,0-2.73,1.66-5.48,3.31-8.22,4.95-.23.14-.47.28-.72.39-.16.07-.34.11-.51.1-.38-.03-.51-.31-.27-.59.16-.19.39-.34.61-.47,2.59-1.56,5.18-3.12,7.77-4.68.28-.17.55-.36.87-.57-.16-.13-.28-.23-.41-.33-2.12-1.65-4.32-3.19-6.33-4.96-4.01-3.53-7.77-7.31-11-11.59-5.06-6.71-8.95-14.05-11.9-21.9-.37-.99-.95-1.9-1.46-2.83-.96-1.75-1.48-3.63-1.83-5.58-.37-2.11-.79-4.22-1.18-6.33-.04-.23-.06-.47-.04-.69.16-1.23.12-2.46-.09-3.68-.43-2.58-.18-5.1.59-7.58.65-2.11,1.36-4.21,2.05-6.31.05-.15.14-.29.27-.45.61,1.62,1.78,2.84,2.84,4.16-.18.22-.37.41-.51.64-.13.22-.54.34-.28.72.02.04-.11.17-.17.27-.4.65-.8,1.3-1.19,1.96-.09.15-.12.32-.18.49.03.03.06.06.08.1.73-.47,1.47-.93,2.2-1.4.04.02.09.04.13.05-.04.17-.03.37-.12.51-.2.33-.43.64-.67.93-.67.82-1.05,1.75-1.2,2.79-.12.84-.27,1.67-.39,2.51-.03.2.03.4.05.69.54-.44,1.02-.83,1.52-1.23.3.24.25.53.16.82-.32.99-.65,1.97-.97,2.96-.04.13-.1.26-.12.39-.02.13.02.27.03.4.15-.01.34.02.46-.05.3-.18.56-.44.87-.61.19-.11.44-.13.66-.19.03.24.15.52.08.72-.31.77-.67,1.53-1.02,2.28-.28.61-.19,1.08.26,1.6.1.11.12.36.07.52-.44,1.54-.64,3.1-.62,4.7.02,1.5.19,2.98.99,4.3.05.09.11.18.21.33.62-.64.57-1.6,1.24-2.3.04.55.09.99.1,1.44.04,1.61-.15,3.19-.5,4.76-.04.16-.19.3-.29.45-.03-.01-.07-.02-.1-.04.04.13.07.26.12.38,3.26,7.89,7.52,15.18,13.04,21.72,4.42,5.24,9.48,9.77,15.12,13.66.26.18.44.19.71,0,3.68-2.58,7.14-5.43,10.35-8.59,6.09-5.99,11.05-12.82,14.87-20.45,1.37-2.73,2.52-5.58,3.77-8.37.18-.41.18-.81.15-1.27-.07-.88,0-1.77,0-2.66,0-.5,0-1-.06-1.51-.5,2.48-1.47,4.8-2.41,7.14-.34-.14-.32-.37-.29-.6.29-1.82.6-3.64.87-5.47.26-1.7.5-3.41.71-5.12.1-.84-.1-1.65-.46-2.48-.38.27-.73.52-1.08.77-.55.4-1.1.81-1.66,1.21-.46.33-.71.21-.74-.35-.08-1.63.07-3.25.28-4.87.27-2.1.51-4.2.73-6.31.06-.57-.02-1.15-.05-1.72,0-.18-.07-.36-.2-.54-.57,1.26-1.13,2.52-1.7,3.78-.05,0-.11-.01-.16-.02-.03-.2-.1-.4-.09-.6.09-2.49.2-4.97.28-7.46.02-.48-.06-.96-.1-1.44-.07,0-.13,0-.2-.01-.76,2.73-1.51,5.46-2.28,8.24-.4-.3-.42-.68-.35-1.06.47-2.61.93-5.22,1.42-7.83.15-.81.19-1.58-.05-2.39-.39-1.31-.22-2.65-.22-3.99,0-2.17.31-4.27,1.02-6.32.37-1.07.65-2.17.97-3.26.13-.46.22-.92.06-1.51-.15.22-.26.35-.34.49-.45.78-.88,1.57-1.34,2.35-.08.15-.12.38-.41.3-.05-.02-.18.12-.22.21-.2.43-.42.86-.57,1.31-.35,1.02-.63,2.07-.99,3.08-.22.61-.55,1.19-.84,1.77-.06.11-.17.2-.34.25.22-.97.45-1.93.67-2.9-.02,0-.05-.02-.07-.02-.06.13-.12.25-.17.38-.46,1.23-.93,2.45-1.39,3.68-.3.8-.75,1.5-1.26,2.19-.5.69-.89,1.47-1.31,2.22-.47.86-.92,1.74-1.38,2.61-.31.57-.56.81-1.07.99.5-1.71,1.2-3.28,1.72-4.9-.03-.02-.06-.04-.09-.07-.55.51-1.12.99-1.64,1.53-1.83,1.91-3.63,3.84-5.45,5.74-.17.18-.42.27-.64.4-.03-.04-.06-.08-.1-.12.64-1.37,1.27-2.74,1.91-4.11-.03-.03-.05-.07-.08-.1-.3.21-.62.39-.89.62-1.36,1.17-2.7,2.35-4.07,3.52-1.1.94-2.22,1.87-3.34,2.79-.14.12-.3.21-.46.32-.03-.03-.07-.05-.1-.08.11-.19.2-.4.34-.56.54-.62,1.08-1.23,1.65-1.83.77-.81,1.38-1.74,1.83-2.75.39-.87.84-1.69,1.72-2.22-.49.14-.98.27-1.47.41-.03-.04-.06-.08-.09-.12.68-.67,1.37-1.34,2.05-2-.02-.02-.03-.05-.05-.07-.19.13-.38.25-.56.39-2.84,2.3-5.67,4.61-8.52,6.89-.82.65-1.71,1.23-2.6,1.79-1.02.65-2.16.77-3.32.52-2.26-.48-4.24-1.51-5.91-3.11-.34-.32-.58-.76-.82-1.17-.12-.21-.12-.48-.18-.73.03-.02.07-.04.1-.07.18.11.37.21.53.34.9.74,1.91,1.08,3.08.99.31-.03.63-.01.94,0,.57.01,1.08-.12,1.55-.45.56-.39,1.16-.34,1.71-.06.2.1.34.44.41.7.1.4.12.83.19,1.33.46-.36.84-.24,1.24-.03.14.07.41,0,.57-.09.59-.33,1.02-.81,1.32-1.56.2.39.36.68.55,1.04.28-.9.69-1.64,1.45-2.24.12.35.21.63.3.91.03.01.06.02.1.03.16-.41.33-.81.48-1.22.11-.28.18-.57.54-.66.08-.02.18-.18.18-.28.02-.38.24-.62.5-.86.32-.28.6-.6.91-.88.09-.08.24-.16.34-.15,1.19.17,1.85-.57,2.44-1.41.24-.34.42-.73.64-1.12.35.23.68.44,1.06.68.03-.22.04-.4.09-.56.12-.37.26-.73.41-1.09.08-.2.16-.41.28-.59.12-.19.24-.41.42-.52.4-.26.58-.19.83.22.07.12.15.23.29.45.12-.52.22-.94.32-1.37.09-.43.08-.91.61-1.12.08-.03.13-.26.13-.4-.08-2.08-.78-3.9-2.25-5.39-.15-.15-.33-.26-.5-.39-.04.02-.09.04-.13.06.06.35.12.71.18,1.1-.12,0-.2,0-.28,0-.59-.02-.66.04-.67.66,0,.85,0,1.7,0,2.55,0,.15,0,.3,0,.51-.41-.1-.77-.19-1.27-.32.31.72.58,1.35.86,1.98-.03.04-.07.08-.1.12-.62-.36-1.25-.72-1.95-1.13-.07.32-.17.59-.19.86-.03.39-.02.79-.02,1.19,0,.25-.11.38-.35.43-.85.18-1.71.36-2.56.56-.13.03-.28.14-.36.25-.14.22-.24.46-.34.7-.11.29-.25.5-.65.27-.06.35-.11.67-.16,1.01-.14-.02-.27-.05-.46-.08v1.65c-.26-.24-.43-.38-.67-.6v1.88s-.08.02-.13.04c-.1-.16-.18-.34-.29-.49-.65-.93-.65-1.85-.1-2.86.39-.72.63-1.51.93-2.27.05-.12.08-.25.15-.43-.19.09-.32.16-.55.27-.01-.34-.06-.63-.03-.91.14-1.53.3-3.05.45-4.57.03-.35.04-.71-.04-1.09-.05.18-.12.36-.16.54-.48,2.18-.96,4.35-1.42,6.53-.34,1.59-1.08,3-1.84,4.41-.14.25-.27.51-.39.77-1.09,2.3-3.05,3.15-5.46,3.25-1.1.05-2.03-.29-2.84-1.03-.45-.41-.97-.76-1.44-1.15-.77-.64-1.2-1.47-1.15-2.47.06-1.17.2-2.34.3-3.51.02-.29.03-.58-.04-.89-.07.14-.13.28-.23.48-.1-.16-.19-.28-.25-.42-.45-1.01-.88-2.03-1.35-3.03-.3-.65-.42-1.3-.11-1.97.03-.06.03-.13.05-.22-.22-.09-.43-.17-.66-.26.14-.35.27-.67.4-.99-.03-.03-.05-.05-.08-.08-.48.41-.96.81-1.43,1.22-.03,0-.07-.01-.1-.02.04-.21.04-.43.12-.62.31-.76.64-1.51.96-2.26.11-.25.18-.49-.13-.73-.5.67-1.01,1.34-1.51,2-.05-.02-.1-.03-.15-.05.15-.97.31-1.94.47-2.97-.21.1-.36.17-.59.27.14-.55.27-1.03.4-1.52-.03-.01-.06-.03-.09-.04-.23.4-.49.78-.69,1.19-.19.39-.34.81-.5,1.21-.19.47-.31.91-.07,1.44.15.34.04.8.01,1.2-.09,1.25-.21,2.5-.31,3.76-.01.16.02.32.13.5.29-.76.59-1.52.88-2.28.04,0,.08.01.12.02-.01.97-.32,1.92-.38,2.88.04.03.08.06.12.09.09-.16.18-.32.26-.49.04.03.09.05.13.08-.04.52-.08,1.04-.12,1.57.03-.01.06-.02.08-.04.11.16.29.31.3.48.11,1.55.19,3.11.28,4.67,0,.03-.02.07-.06.2-.21-.21-.4-.37-.56-.56-1.21-1.47-2.41-2.94-3.62-4.41-1.66-2.03-3.32-4.08-4.99-6.1-.48-.59-.86-1.22-1.09-1.95-.32-1.02-.66-2.02-1-3.03-.6-1.79-.68-3.62-.5-5.47.13-1.38.24-2.75.35-4.13.07-.84.42-1.57.79-2.31.72-1.47,1.41-2.96,2.14-4.43.74-1.49,1.68-2.86,2.76-4.12.56-.66.59-1.31.25-2.04-.22-.47-.59-.66-1.1-.55-.23.05-.45.1-.68.15-.17.04-.37.03-.33.31,0,.05-.13.15-.22.18-.36.13-.72.25-1.09.35-.28.08-.43.23-.51.52-.31,1.1-.64,2.2-.98,3.3-.19.6-.1,1.16.14,1.72.11.25.24.49.32.75.06.22.13.47.07.68-.06.25-.22.49-.41.67-.04.04-.41-.14-.53-.3-.32-.4-.65-.82-.85-1.28-.37-.86-.67-1.76-.98-2.65-.29-.83-.31-1.69-.12-2.55.21-.92.4-1.84.58-2.77.16-.83.59-1.42,1.39-1.74.61-.25,1.19-.56,1.8-.78.74-.27,1.48-.19,2.2.1,1.25.48,2.5.93,3.75,1.42.38.15.73.38,1.18.63-.43.38-.76.66-1.08.94,0,.03.02.05.03.08.15-.05.3-.11.45-.16,1.88-.71,3.73-1.49,5.64-2.09,1.16-.36,2.41-.45,3.62-.65.18-.03.37,0,.56,0,.01.05.03.1.04.15-.45.2-.9.41-1.35.61,0,.03.01.05.02.08.31-.03.63-.05.94-.09,1.11-.15,2.21-.01,3.31.16,1.96.31,3.92.23,5.89-.02,1.56-.2,3.13-.14,4.66.15.89.16,1.74.57,2.59.9,1.05.4,2.08.83,3.12,1.25.08.03.17.06.26.09.02-.03.04-.07.06-.1-.65-.45-1.31-.9-2-1.38.1-.03.14-.05.17-.04,1.7.4,3.35.89,4.73,2.05,1.41,1.18,2.93,2.23,3.83,3.89.61,1.13,1.23,2.26,1.76,3.43,1.11,2.43,2.11,4.9,2.63,7.53.17.84.22,1.71.33,2.6.3-.2.34-.48.28-.75-.48-2.05-.97-4.1-1.49-6.13-.19-.76-.07-.97.72-1.04.41-.03.73.07.93.45.16.3.33.6.48.91.6,1.28,1.18,2.56,1.77,3.83.36.78.47,1.59.31,2.44-.58,3.16-1.11,6.33-1.74,9.48-.2.98-.65,1.91-.99,2.86-.05.14-.11.27-.08.46.33-.47.65-.94,1.04-1.49.08.14.14.24.21.36.7-1.66,2.89-12.13,2.87-13.63-.18.04-.37.08-.59.12-.29-.68-.57-1.34-.85-2.01-.48-1.15-.98-2.29-1.43-3.44-.41-1.03-.09-2.03.84-2.67.91,1.53,1.68,3.13,2.35,4.76.67,1.62,1.24,3.28,1.86,4.92.04,0,.07-.02.11-.03Zm-23.34-7.34c.1.04.29.11.5.19.14-1.23-.75-2.48-1.98-2.9-.32-.11-.65-.22-.93.08-.18-.15-.32-.31-.5-.41-.36-.21-.74-.4-1.12-.56-.22-.1-.4,0-.48.23-.1.29-.29.33-.54.21-.47-.24-.95-.49-1.42-.73-.25-.13-.49-.27-.73-.4-.02.03-.04.06-.06.09.45.76.86,1.55,1.38,2.27.5.69.57,1.33.18,2.07-.26.51-.38,1.09-.87,1.46-1.45,1.07-3.05,1.64-4.85,1.23-1.14-.26-2.24-.69-3.38-1-.82-.23-1.53-.59-1.99-1.33,0-.01-.05,0-.1-.02-.22.52-.43,1.05-.68,1.56-.16.32-.15.52.18.73.38.25.72.56,1.12.87-.19.11-.34.15-.42.24-.17.19-.39.4-.43.63-.08.46-.18.88-.65,1.19.44.14.34.39.24.66-.14.34-.28.69-.37,1.04-.04.14,0,.38.1.47.28.25.34.54.34.88,0,.68,0,1.37,0,2.05,0,.16.02.34.1.47.36.53.41,1.12.41,1.73,0,1.04,0,2.08.03,3.12.01.48.09.96.14,1.44.23-.66.05-1.36.32-1.99.06,0,.11,0,.17.01v2.58c.57-.6.33-1.54,1.05-2.02.04.25.02.48-.01.71-.1.74-.29,1.49-.29,2.23,0,1.6-.31,3.11-.85,4.61-.29.81-.46,1.65-.39,2.53.04.56.31.89.83,1.03.43.11.75.36,1.03.7.72.85,1.64,1.2,2.72.87,1.49-.45,2.96-.97,4.44-1.47.31-.1.52-.31.55-.65.06-.7.14-1.41.15-2.11.03-2.25.39-4.46.88-6.65.28-1.29.52-2.57.27-3.9-.06-.32,0-.66,0-1.09.59.54,1.07,1.02.94,1.81-.13.79-.21,1.6-.41,2.37-.27,1.04-.46,2.08-.32,3.16.05.36.06.74.03,1.1-.04.59-.14,1.17-.2,1.75-.03.34-.04.68-.06,1.02.04,0,.08.01.13.02.05-.16.14-.32.15-.49.08-1.02.18-2.04.21-3.06.04-1.22.17-2.42.56-3.59.17-.5.24-1.04.25-1.57.04-1.16,0-2.33.02-3.49.02-.89-.22-1.67-.79-2.35-.13-.16-.19-.38-.3-.64.24.03.36.06.48.05.18-.02.46,0,.53-.12.16-.24,0-.46-.22-.62-.11-.08-.22-.17-.33-.25-.92-.71-1.83-1.43-2.75-2.14-.18-.14-.19-.26-.12-.49.07-.23.09-.54,0-.74-.18-.36-.08-.58.16-.83.79-.84,1.56-1.69,2.33-2.53.71-.77.89-1.64.43-2.61-.18-.38-.33-.77-.49-1.15.25-.22.42-.1.59.07.62.62,1.22,1.26,1.86,1.85.82.76,1.16,1.68,1.15,2.79-.02,1.87,0,3.75,0,5.63,0,.16.04.31.06.47.05,0,.11,0,.16,0,.18-1.27.33-2.53.54-3.8.22-1.31-.16-2.56-.38-3.89.44.09.81.18.94-.31.01-.04.11-.07.17-.09.19-.08.38-.15.67-.27Zm-19.07-1.27c.3.45.07.77-.06,1.08-1.86,4.82-2.02,9.72-.67,14.69.08.31.21.61.6.74,0-.13.02-.22.02-.31-.08-.97-.15-1.94-.25-2.9-.36-3.28-.36-6.54.11-9.81.21-1.49.67-2.83,1.78-3.91.62-.6,1.2-1.23,1.8-1.85.06-.06.09-.14.17-.26h-.49v-1.37c-.07,0-.12-.02-.15-.01-.11.02-.21.04-.32.07-1.01.29-1.88.82-2.62,1.55-.27.26-.49.6-.64.94-.33.76-.32,1.54.04,2.38.25-.37.45-.67.69-1.02Zm29.28,26.39c.83-.83,1.65-1.64,2.09-2.75.55-1.38,1.16-2.74,1.69-4.13.37-.97.8-1.95.91-2.96.18-1.66.15-3.35.16-5.03,0-.39-.16-.81-.34-1.16-.96-1.86-1.95-3.7-2.93-5.54-.07-.14-.17-.26-.26-.4-.04.21,0,.39.06.56.42.98.81,1.97,1.27,2.93,1.6,3.34,1.71,6.83.65,10.27-.83,2.69-2.08,5.25-3.14,7.87-.05.12-.1.23-.15.35Zm-15.91.04c-.07-.02-.13-.03-.2-.05-.15.44-.33.87-.46,1.31-.32,1.08-.95,1.77-2.1,1.98-.4.07-.77.36-1.15.56-.42.23-.8.55-1.24.68-.64.19-1.31.28-1.97.37-.48.07-.93-.03-1.31-.36-.75-.64-1.48-1.29-2.23-1.93-.22-.19-.45-.35-.68-.52-.08.8.29,1.34.74,1.84.72.81,1.6,1.39,2.6,1.82.37.16.74.34,1.19.54-.37.12-.65.21-.92.31.01.05.02.11.04.16.66-.08,1.32-.11,1.97-.24,1.12-.22,1.93-.97,2.8-1.64,1.42-1.1,2.31-2.56,2.86-4.25.06-.19.04-.4.05-.6Zm-9.25-24.34c.14.68.62.92,1.16,1.07.67.18,1.35.34,2.03.5,1.12.26,2.17.05,3.17-.47.1-.05.19-.13.29-.21-.06-.06-.08-.1-.11-.12-1.07-.57-2.03-1.28-2.82-2.21-.2-.23-.48-.25-.75-.11-.38.19-.75.39-1.13.58-.61.32-1.22.65-1.83.97Zm1.48-1.21s.07.06.11.1c.38-.33.8-.64,1.15-1.01.64-.66.67-1.62.14-2.37-.28-.41-.64-.55-1.13-.46-1.12.21-1.93.88-2.55,1.78-.16.24-.17.63-.14.94.04.47.3.68.71.7.53.03.69-.09.84-.62.04-.14.08-.29.14-.43.3-.81.72-.98,1.52-.65.26.11.32.26.21.47-.17.34-.38.65-.59.97-.13.2-.27.38-.41.57Zm4.09.22s0-.03,0-.04c-.27-.36-.55-.71-.79-1.09-.07-.12-.1-.35-.03-.46.33-.58,1.24-.57,1.54.02.15.3.24.64.33.96.08.31.28.45.58.48.43.03.75-.16.95-.56.21-.42.17-.82-.14-1.13-.42-.42-.86-.84-1.31-1.23-.56-.49-1.23-.57-1.93-.44-.16.03-.33.15-.43.28-.88,1.11-.18,2.94,1.23,3.22Zm-8.09,20.75c.07-.01.14-.03.21-.04-.15-3.16-1.37-6.21-1.12-9.42-.09.32-.08.64-.09.96,0,.12,0,.31-.06.34-.41.22-.29.6-.25.91.21,1.68.43,3.36.71,5.02.13.76.39,1.49.59,2.23Zm9.85-25.01s.02-.09.03-.13c-.41-.1-.82-.22-1.24-.31-1.35-.29-2.72-.48-4.11-.29-.66.09-1.28.29-1.76.81,2.35-1.05,4.71-.21,7.07-.09Z"/>
    <path class="cls-2" d="m57.96,18.03c.28-.23.54-.41.76-.63.15-.15.32-.35.36-.55.1-.6.17-1.21.2-1.82.02-.38,0-.8-.12-1.15-.26-.77-.61-1.52-.92-2.28-.27-.67-.68-1.21-1.36-1.52-.24-.11-.45-.3-.71-.47.13-.29.24-.55.38-.87-.67.14-1.15.52-1.61.91-.31.27-.6.49-1.02.21-.19.24-.36.45-.52.66-1.03-.25-1.44-1.02-1.08-1.97.37-.96,1.06-1.58,2.03-1.87,1.59-.48,3.11-.34,4.53.55.17.11.34.23.52.32,1.77.87,2.42,2.42,2.47,4.27.03,1.13,0,2.27-.17,3.39-.16,1.11-.88,1.95-1.73,2.66-.38.32-1.49.43-2.01.17Z"/>
    <path class="cls-2" d="m14.3,42.82c.28.69.54,1.32.82,2,.12-.23.2-.39.35-.68,1.58,1.94,3.11,3.83,4.65,5.72-.04.04-.08.09-.11.13-.16-.11-.35-.2-.48-.35-1.32-1.44-2.85-2.64-4.52-3.65-1.27-.77-2.25-1.8-2.97-3.11-.61-1.1-1.28-2.16-1.93-3.24-.98-1.64-1.52-3.4-1.55-5.33-.03-1.72-.15-3.44-.23-5.16,0-.14.01-.28.02-.42.04,0,.08-.01.12-.02.06.17.13.34.18.51.97,3.26,1.92,6.53,2.9,9.78.07.22.28.4.41.61.09.15.18.3.24.47.21.66.4,1.32.61,2.05.18-.2.29-.33.45-.51.16.32.34.6.46.9.11.28.24.45.58.29Z"/>
    <path class="cls-2" d="m30.15,77.54v4.34h-.74v-5.94c.29,0,.57-.03.85.01.1.02.22.17.27.29.54,1.33,1.08,2.66,1.61,3.99.06.14.12.27.21.5.29-.72.55-1.36.81-2,.32-.8.66-1.59.95-2.4.12-.34.28-.49.65-.44.17.03.35,0,.56,0v5.97h-.78v-4.33s-.06,0-.09-.01c-.41,1.02-.83,2.04-1.24,3.05-.13.32-.27.63-.38.95-.08.24-.19.38-.49.38-.28,0-.36-.14-.45-.36-.48-1.21-.97-2.4-1.46-3.61-.06-.15-.13-.29-.19-.43-.03,0-.05,0-.08.01Z"/>
    <path class="cls-2" d="m50.36,71.74c-.64.14-.76.09-1.09-.41-.77-1.18-1.54-2.36-2.31-3.54-.08-.12-.17-.24-.34-.35v4.29h-.8v-5.91c.54-.17.72-.11,1.03.35.79,1.2,1.58,2.4,2.37,3.6.08.12.17.24.34.47v-4.41h.81v5.9Z"/>
    <path class="cls-2" d="m36.76,81.89v-5.96c1,0,2-.17,2.96.14,1.09.35,1.31,1.74.44,2.48-.07.06-.14.12-.25.21.78.4,1.05,1.03.88,1.85-.14.7-.66,1.21-1.42,1.27-.85.06-1.71.01-2.62.01Zm.81-.63c.54,0,1.03.02,1.52,0,.55-.02.92-.43.94-.99.02-.66-.23-1.05-.83-1.1-.54-.05-1.08-.01-1.65-.01,0,.59,0,1.14,0,1.7,0,.12.01.24.02.4Zm0-2.72c.61-.06,1.17-.05,1.7-.18.49-.11.65-.49.59-1.03-.05-.43-.26-.68-.75-.72-.51-.05-1.02-.01-1.54-.01v1.94Z"/>
    <path class="cls-2" d="m25.78,75.83c1,.02,1.73.46,2.12,1.39.49,1.17.42,2.36-.05,3.51-.37.9-1.14,1.3-2.09,1.3-.96,0-1.69-.43-2.09-1.32-.52-1.18-.51-2.39,0-3.58.4-.9,1.15-1.28,2.1-1.3Zm1.64,3.14s-.04-.01-.07-.02c-.02-.35,0-.71-.05-1.06-.08-.68-.56-1.22-1.16-1.33-.75-.15-1.39.08-1.68.71-.51,1.09-.5,2.23,0,3.32.26.56.77.78,1.39.75.61-.03,1.08-.3,1.27-.87.16-.48.2-1,.29-1.51Z"/>
    <path class="cls-2" d="m26,71.78v-6.03c.86.05,1.72.02,2.54.16.86.15,1.37.8,1.63,1.62.23.76.24,1.54.05,2.31-.27,1.11-1.07,1.84-2.22,1.93-.65.05-1.31,0-2,0Zm.8-.65c.36,0,.67.01.99,0,.89-.05,1.42-.48,1.64-1.33.19-.76.18-1.51-.07-2.26-.2-.6-.61-.98-1.24-1.05-.43-.05-.87,0-1.32,0v4.66Z"/>
    <path class="cls-2" d="m11.64,43.57c2.69,3.51,6.02,6.42,8.92,9.73l-.11.14c-.14-.06-.29-.1-.42-.17-1.63-.9-3-2.14-4.3-3.46-1.26-1.28-2.37-2.68-3.34-4.2-.4-.62-.74-1.27-.76-2.04Z"/>
    <path class="cls-2" d="m68.46,77.61c-.66.1-.66.1-.91-.46-.15-.33-.39-.55-.74-.57-.35-.02-.71,0-1.06.05-.38.06-.57.35-.61.73-.04.37.1.66.44.8.54.23,1.1.42,1.64.64.62.25,1.13.62,1.26,1.34.12.66-.18,1.32-.79,1.61-.98.46-1.94.42-2.85-.17-.47-.3-.69-.75-.71-1.3.62-.14.68-.12.9.38.35.78,1.93.98,2.46.31.34-.42.2-1.09-.31-1.32-.5-.22-1.02-.39-1.52-.61-.31-.14-.63-.29-.88-.51-.72-.64-.64-1.7.14-2.27.86-.62,2.12-.59,2.95.07.39.32.57.7.59,1.28Z"/>
    <path class="cls-2" d="m55.75,67.47c-.65.12-.66.11-.9-.44-.31-.72-1.71-.91-2.22-.3-.36.44-.24,1.06.3,1.31.44.21.91.37,1.37.55.25.1.51.2.75.33.98.55,1.03,1.93.11,2.57-.89.62-2.48.49-3.25-.26-.33-.33-.47-.69-.41-1.15h.68c.42,1,1.17,1.36,2.15,1.03.38-.13.64-.37.66-.8.01-.41-.17-.71-.57-.86-.58-.23-1.18-.44-1.75-.69-.78-.34-1.08-.79-1.04-1.54.04-.74.49-1.16,1.15-1.39.86-.31,1.67-.2,2.4.36.41.31.59.74.59,1.28Z"/>
    <path class="cls-2" d="m63.43,75.99v.57h-2.91c0,.59,0,1.13,0,1.67,0,.24.15.28.36.27.71,0,1.42,0,2.16,0v.66h-2.48v2.09h2.92v.64h-3.75v-5.9h3.7Z"/>
    <path class="cls-2" d="m46.68,81.87q-.77.13-1.02-.54-.36-.94-1.35-.94h-.45q-1.03,0-1.39.95-.24.64-1.03.54c.21-.57.42-1.13.63-1.69.5-1.32,1.01-2.63,1.5-3.95.1-.27.24-.34.51-.34.26,0,.38.08.48.33.67,1.78,1.35,3.55,2.03,5.32.04.1.06.2.1.31Zm-2.57-4.86s-.07,0-.1,0c-.31.88-.63,1.75-.95,2.65h2.02c-.33-.91-.65-1.78-.97-2.66Z"/>
    <path class="cls-2" d="m41.01,71.77v-5.96h3.66c.17.59.14.64-.46.64-.79,0-1.58,0-2.41,0v1.89h2.51v.66h-2.49v2.13h2.91v.64h-3.72Z"/>
    <path class="cls-2" d="m32.33,71.11h2.93v.65h-3.72v-5.94h3.71v.6h-2.89v1.91h2.51v.69c-.63,0-1.27,0-1.91,0-.78,0-.62.02-.63.65,0,.46,0,.92,0,1.44Z"/>
    <path class="cls-2" d="m57.65,66.42v1.92h2.5v.68h-2.49v2.08h2.92v.64h-3.73v-5.92h3.69v.6h-2.89Z"/>
    <path class="cls-2" d="m22.4,80.05c.11.89-.65,1.78-1.64,1.94-1.49.24-2.54-.5-2.82-1.99-.16-.85-.16-1.69.09-2.51.46-1.47,2.1-2.12,3.45-1.38.59.32.97,1,.95,1.69-.66.11-.67.11-.88-.46-.21-.56-.63-.82-1.2-.83-.62-.01-1.16.2-1.4.8-.43,1.08-.44,2.19.01,3.27.24.56.77.81,1.46.75.59-.05,1.02-.34,1.15-.93.12-.56.51-.33.82-.35Z"/>
    <path class="cls-2" d="m53.78,75.98q.83-.08,1.08.67c.42,1.23.85,2.45,1.27,3.68.04.11.09.22.16.41.07-.16.13-.26.16-.37.44-1.25.87-2.5,1.31-3.75q.25-.72,1.07-.63c-.02.09-.03.18-.06.26-.66,1.79-1.33,3.59-1.98,5.38-.09.24-.21.32-.45.29-.19-.02-.39.07-.5-.22-.67-1.85-1.36-3.69-2.04-5.54-.02-.06-.02-.12-.03-.18Z"/>
    <path class="cls-2" d="m36.29,65.81h3.67v.64h-2.79v2c.64,0,1.26,0,1.89,0q.6,0,.54.69c-.66,0-1.32.02-1.98,0-.4-.02-.52.11-.5.5.03.69,0,1.39,0,2.11h-.83v-5.92Z"/>
    <path class="cls-2" d="m49.22,76.59v5.3h-.81v-5.3h-1.87v-.62h4.57v.62h-1.89Z"/>
    <path class="cls-2" d="m52.84,81.9h-.71v-5.95h.71v5.95Z"/>
    <path class="cls-2" d="m32.27,36.44c.03-.16.07-.33.08-.49.07-1.01.13-2.02.2-3.03.08-1.19.39-1.48,1.56-1.35,1.1.12,2.05.63,1.79,2.24-.12.75-.35,1.5-.38,2.26-.05,1.69-.51,3.28-.96,4.89-.24.83-.61,1.58-1.17,2.23-.09.1-.19.2-.26.32-.62,1.1-1.59,1.27-2.71,1.03-1.51-.31-1.46-.33-1.66-1.68-.36-2.48-.31-4.96.09-7.43.21-1.28.85-2.35,1.7-3.31.37-.43.89-.47,1.4-.28.13.05.23.32.23.49,0,1.22-.03,2.43-.04,3.65,0,.15.02.31.02.46.04,0,.07,0,.11,0Zm-2.83,5.2c.05-.01.11-.02.16-.03.16-1.83.15-3.66-.19-5.48-.05.06-.08.13-.09.19-.06,1.35-.14,2.7-.15,4.05,0,.42.17.85.27,1.27Zm5.26-3.63l-.13-.08c-.33.48-.82.91-.97,1.44-.18.66-.27,1.4-.06,2.1.52-1.12.97-2.25,1.16-3.46Z"/>
    <path class="cls-2" d="m27.85,45.05c.44-.52.49-.5,1.03.31.37-.21.63-.05.84.3.06-.02.11-.05.16-.05.21,0,.59-.02.61.04.06.25.05.53-.03.77-.02.07-.36.07-.54.05-.24-.02-.48-.07-.71-.15-.12-.04-.25-.15-.31-.26-.07-.12-.07-.29-.1-.41-.22.07-.44.23-.62.19-.16-.04-.27-.3-.42-.48,0,0-.05,0-.08.03-.29.21-.59.42-.98.23-.4-.2-.34-.59-.36-.94-.05-.66.08-1.28.4-1.86.08-.15.21-.28.35-.46.55.82.63,1.72.78,2.67Z"/>
    <path class="cls-2" d="m27.14,25.92c.25.73.17,1.39-.01,2.03-.17.59-.39,1.16-.64,1.72-.07.15-.29.23-.45.35-.09-.14-.24-.29-.24-.43-.02-.91-.01-1.83,0-2.74,0-.1.1-.23.19-.28.36-.22.73-.42,1.14-.65Z"/>
    <path class="cls-2" d="m33.64,45.62c-.19.27-.4.61-.71.35-.16-.13-.21-.53-.14-.76.09-.28.37-.5.74-.15.29-.87.56-1.7.88-2.65.19.29.36.45.41.64.15.59.3,1.19.38,1.8.11.85-.41,1.22-1.21.9-.1-.04-.2-.08-.33-.14Z"/>
    <path class="cls-2" d="m35.52,29.91c-.34-.03-.53-.2-.59-.5-.16-.71-.33-1.41-.46-2.12-.09-.47.15-.73.63-.74.07,0,.14,0,.2,0,.97.19,1.08.34.86,1.21-.16.66-.38,1.31-.57,1.97-.02.05-.04.1-.07.19Z"/>
    <path class="cls-2" d="m32.45,45.36v.87c-.39.12-.74.25-1.1.33-.11.03-.34-.03-.36-.09-.07-.23-.09-.49-.08-.73,0-.08.19-.23.28-.22.3.03.58.11.8-.2.05-.06.29.02.45.04Z"/>
    <path class="cls-2" d="m33.83,27.81c-.74-.14-1-.82-.63-1.61,1.11.16,1.32.72.63,1.61Z"/>
    <path class="cls-2" d="m28.54,26.61c0,.07-.01.14-.02.2-.07.37-.37.75-.57.72-.26-.05-.54-.69-.46-1.05.09-.4.51-.74.79-.56.18.11.22.44.32.67-.02,0-.04.02-.06.03Z"/>
    <path class="cls-2" d="m29.15,26.77c-.39.06-.43-.23-.43-.49,0-.29.17-.51.47-.51.26,0,.5.14.47.45-.02.29-.11.58-.52.54Z"/>
    <path class="cls-2" d="m32.29,27.14c-.16-.25-.38-.46-.42-.7-.02-.14.23-.33.35-.5.13.1.32.18.39.32.16.31-.02.57-.33.87Z"/>
    <path class="cls-2" d="m31.84,26.35c-.22.22-.37.36-.51.5-.13-.15-.35-.29-.38-.45-.03-.21,0-.56.36-.5.17.03.31.25.53.45Z"/>
    <path class="cls-2" d="m30.14,25.76c.6.3.61.6.04,1.02-.47-.38-.48-.67-.04-1.02Z"/>
  </g>
  <g>
    <path class="cls-1" d="m53.15,44.02c.05-.12.1-.23.15-.35,1.06-2.62,2.31-5.18,3.14-7.87,1.06-3.44.95-6.93-.65-10.27-.46-.96-.85-1.95-1.27-2.93-.07-.16-.1-.35-.06-.56.09.13.18.26.26.4.98,1.84,1.97,3.69,2.93,5.54.18.36.35.78.34,1.16,0,1.68.03,3.37-.16,5.03-.11,1.01-.55,1.99-.91,2.96-.53,1.39-1.14,2.75-1.69,4.13-.44,1.11-1.26,1.92-2.09,2.75Z"/>
    <path class="cls-5" d="m25.46,39.47c-.2-.74-.47-1.47-.59-2.23-.28-1.67-.5-3.35-.71-5.02-.04-.31-.16-.69.25-.91.06-.03.06-.22.06-.34,0-.32,0-.63.09-.96-.25,3.21.97,6.26,1.12,9.42-.07.01-.14.03-.21.04Z"/>
    <path class="cls-3" d="m35.32,14.46c-2.36-.12-4.72-.96-7.07.09.48-.52,1.1-.72,1.76-.81,1.39-.19,2.75,0,4.11.29.41.09.82.2,1.24.31-.01.04-.02.09-.03.13Z"/>
    <path class="cls-4" d="m29.47,18.5c.14-.19.28-.37.41-.57.2-.32.41-.64.59-.97.11-.21.05-.36-.21-.47-.8-.33-1.22-.16-1.52.65-.05.14-.09.29-.14.43-.15.52-.31.64-.84.62-.4-.02-.67-.24-.71-.7-.03-.31-.02-.7.14-.94.62-.9,1.43-1.57,2.55-1.78.49-.09.85.06,1.13.46.52.75.49,1.71-.14,2.37-.35.37-.76.67-1.15,1.01-.04-.03-.07-.06-.11-.1Zm4.09.18c-.27-.36-.55-.71-.79-1.09-.07-.12-.1-.35-.03-.46.33-.58,1.24-.57,1.54.02.15.3.24.64.33.96.08.31.28.45.58.48.43.03.75-.16.95-.56.21-.42.17-.82-.14-1.13-.42-.42-.86-.84-1.31-1.23-.56-.49-1.23-.57-1.93-.44-.16.03-.33.15-.43.28-.88,1.11-.18,2.94,1.23,3.22,0-.01,0-.03,0-.04Zm3.49,25.33c-.15.44-.33.87-.46,1.31-.32,1.08-.95,1.77-2.1,1.98-.4.07-.77.36-1.15.56-.42.23-.8.55-1.24.68-.64.19-1.31.28-1.97.37-.48.07-.93-.03-1.31-.36-.75-.64-1.48-1.29-2.23-1.93-.22-.19-.45-.35-.68-.52-.08.8.29,1.34.74,1.84.72.81,1.6,1.39,2.6,1.82.37.16.74.34,1.19.54-.37.12-.65.21-.92.31.01.05.02.11.04.16.66-.08,1.32-.11,1.97-.24,1.12-.22,1.93-.97,2.8-1.64,1.42-1.1,2.31-2.56,2.86-4.25.06-.19.04-.4.05-.6-.07-.02-.13-.03-.2-.05Zm.53,37.25c0-.16-.02-.28-.02-.4,0-.56,0-1.11,0-1.7.57,0,1.12-.04,1.65.01.59.05.85.43.83,1.1-.02.56-.39.97-.94.99-.49.02-.98,0-1.52,0Zm1.7-2.9c.49-.11.65-.49.59-1.03-.05-.43-.26-.68-.75-.72-.51-.05-1.02-.01-1.54-.01v1.94c.61-.06,1.17-.05,1.7-.18Zm-10.14-57.58c.67.18,1.35.34,2.03.5,1.12.26,2.17.05,3.17-.47.1-.05.19-.13.29-.21-.06-.06-.08-.1-.11-.12-1.07-.57-2.03-1.28-2.82-2.21-.2-.23-.48-.25-.75-.11-.38.19-.75.39-1.13.58-.61.32-1.22.65-1.83.97.14.68.62.92,1.16,1.07Zm13.8-1.89c-.29.12-.48.19-.67.27-.06.03-.15.05-.17.09-.13.49-.49.4-.94.31.22,1.33.6,2.58.38,3.89-.21,1.26-.36,2.53-.54,3.8-.05,0-.11,0-.16,0-.02-.16-.06-.31-.06-.47,0-1.88-.02-3.75,0-5.63.01-1.1-.33-2.03-1.15-2.79-.64-.59-1.25-1.23-1.86-1.85-.17-.17-.33-.29-.59-.07.16.38.31.77.49,1.15.45.97.28,1.83-.43,2.61-.78.85-1.55,1.7-2.33,2.53-.24.26-.33.48-.16.83.1.2.08.51,0,.74-.07.22-.06.35.12.49.92.71,1.84,1.43,2.75,2.14.11.08.21.17.33.25.22.16.38.38.22.62-.07.11-.34.1-.53.12-.12.01-.24-.02-.48-.05.12.26.17.48.3.64.57.69.81,1.47.79,2.35-.02,1.16.02,2.33-.02,3.49-.02.53-.09,1.07-.25,1.57-.39,1.17-.52,2.37-.56,3.59-.03,1.02-.13,2.04-.21,3.06-.01.17-.1.33-.15.49-.04,0-.08-.01-.13-.02.02-.34.02-.68.06-1.02.06-.58.15-1.17.2-1.75.03-.36.01-.74-.03-1.1-.14-1.08.06-2.12.32-3.16.2-.77.28-1.58.41-2.37.13-.79-.35-1.27-.94-1.81,0,.42-.05.77,0,1.09.26,1.33.02,2.61-.27,3.9-.49,2.19-.85,4.4-.88,6.65,0,.7-.09,1.41-.15,2.11-.03.34-.24.54-.55.65-1.48.49-2.95,1.01-4.44,1.47-1.08.33-2-.02-2.72-.87-.28-.34-.6-.58-1.03-.7-.52-.13-.79-.47-.83-1.03-.07-.88.1-1.73.39-2.53.54-1.49.85-3.01.85-4.61,0-.74.19-1.49.29-2.23.03-.23.05-.46.01-.71-.71.48-.48,1.43-1.05,2.02v-2.58c-.06,0-.11,0-.17-.01-.26.63-.08,1.33-.32,1.99-.05-.48-.13-.96-.14-1.44-.03-1.04-.03-2.08-.03-3.12,0-.61-.05-1.2-.41-1.73-.08-.12-.1-.31-.1-.47-.01-.68-.01-1.37,0-2.05,0-.34-.06-.64-.34-.88-.1-.08-.13-.32-.1-.47.09-.36.23-.7.37-1.04.11-.27.21-.52-.24-.66.48-.31.57-.72.65-1.19.04-.23.26-.44.43-.63.08-.1.23-.14.42-.24-.4-.31-.74-.62-1.12-.87-.33-.21-.34-.41-.18-.73.25-.51.46-1.04.68-1.56.05,0,.09,0,.1.02.47.74,1.17,1.1,1.99,1.33,1.13.31,2.23.74,3.38,1,1.8.41,3.4-.17,4.85-1.23.49-.36.61-.95.87-1.46.38-.75.32-1.39-.18-2.07-.52-.71-.92-1.51-1.38-2.27.02-.03.04-.06.06-.09.24.13.48.27.73.4.47.25.94.49,1.42.73.25.12.44.09.54-.21.08-.24.26-.33.48-.23.38.17.76.36,1.12.56.18.1.32.26.5.41.28-.3.61-.19.93-.08,1.24.42,2.12,1.67,1.98,2.9-.21-.08-.4-.15-.5-.19Zm-10.67,17.54s-.07,0-.11,0c0-.15-.03-.31-.02-.46.02-1.22.04-2.43.04-3.65,0-.17-.11-.44-.23-.49-.5-.19-1.02-.14-1.4.28-.84.96-1.49,2.03-1.7,3.31-.4,2.47-.45,4.95-.09,7.43.19,1.35.14,1.36,1.66,1.68,1.13.23,2.1.07,2.71-1.03.07-.12.17-.22.26-.32.57-.65.94-1.39,1.17-2.23.45-1.6.91-3.2.96-4.89.02-.76.26-1.51.38-2.26.26-1.61-.69-2.12-1.79-2.24-1.17-.13-1.48.16-1.56,1.35-.07,1.01-.13,2.02-.2,3.03-.01.16-.05.33-.08.49Zm-4.41,8.61c-.15-.95-.23-1.85-.78-2.67-.14.18-.26.31-.35.46-.32.58-.45,1.2-.4,1.86.03.34-.04.74.36.94.38.19.68-.02.98-.23.03-.02.07-.03.08-.03.15.18.26.44.42.48.17.05.4-.11.62-.19.03.12.03.29.1.41.06.11.19.22.31.26.23.08.47.13.71.15.19.02.52.02.54-.05.08-.24.09-.53.03-.77-.01-.06-.39-.03-.61-.04-.05,0-.09.03-.16.05-.2-.35-.47-.51-.84-.3-.54-.81-.59-.82-1.03-.31Zm-.71-19.13c-.41.23-.79.43-1.14.65-.09.06-.19.19-.19.28-.02.91-.03,1.83,0,2.74,0,.15.16.29.24.43.15-.11.38-.19.45-.35.25-.56.47-1.13.64-1.72.19-.64.26-1.31.01-2.03Zm6.5,19.71c.13.06.23.1.33.14.81.31,1.32-.05,1.21-.9-.08-.61-.22-1.2-.38-1.8-.05-.19-.22-.36-.41-.64-.32.95-.59,1.78-.88,2.65-.37-.35-.64-.13-.74.15-.07.22-.02.63.14.76.31.26.52-.09.71-.35Zm1.88-15.71c.03-.09.06-.14.07-.19.19-.66.41-1.3.57-1.97.22-.87.11-1.02-.86-1.21-.07-.01-.14,0-.2,0-.48.01-.72.27-.63.74.13.71.3,1.42.46,2.12.07.3.25.47.59.5Zm-3.07,15.45c-.16-.02-.41-.1-.45-.04-.23.31-.5.24-.8.2-.09,0-.27.14-.28.22-.02.24.01.5.08.73.02.06.25.12.36.09.36-.09.71-.21,1.1-.33v-.87Zm1.39-17.55c.7-.89.48-1.45-.63-1.61-.37.79-.11,1.47.63,1.61Zm-5.29-1.2s.04-.02.06-.03c-.1-.23-.14-.56-.32-.67-.28-.17-.69.17-.79.56-.09.36.19,1,.46,1.05.19.03.5-.35.57-.72.01-.07.02-.13.02-.2Zm.62.17c.4.04.49-.25.52-.54.03-.31-.22-.44-.47-.45-.3,0-.48.22-.47.51,0,.26.04.55.43.49Zm3.14.37c.31-.31.49-.56.33-.87-.07-.14-.26-.22-.39-.32-.13.17-.38.35-.35.5.04.24.25.44.42.7Zm-.45-.79c-.23-.2-.36-.42-.53-.45-.36-.06-.39.29-.36.5.03.17.25.3.38.45.14-.14.28-.28.51-.5Zm-1.71-.59c-.44.35-.43.64.04,1.02.57-.42.56-.72-.04-1.02Zm-6.33-7.05c-1.86,4.82-2.02,9.72-.67,14.69.08.31.21.61.6.74,0-.13.02-.22.02-.31-.08-.97-.15-1.94-.25-2.9-.36-3.28-.36-6.54.11-9.81.21-1.49.67-2.83,1.78-3.91.62-.6,1.2-1.23,1.8-1.85.06-.06.09-.14.17-.26h-.49v-1.37c-.07,0-.12-.02-.15-.01-.11.02-.21.04-.32.07-1.01.29-1.88.82-2.62,1.55-.27.26-.49.6-.64.94-.33.76-.32,1.54.04,2.38.25-.37.45-.67.69-1.02.3.45.07.77-.06,1.08Zm26.41,100.68c1.17.72,2.26,1.4,3.36,2.06.47.29.75.68.72,1.24-.05,1-1.06,1.56-1.93,1.06-1.4-.8-2.79-1.62-4.17-2.46-.37-.22-.64-.23-1.01,0-1.2.74-2.42,1.45-3.62,2.18-.36.22-.68.21-1.03,0-1.16-.7-2.33-1.37-3.49-2.08-.35-.21-.63-.22-.98,0-1.31.79-2.66,1.53-3.95,2.34-.72.46-1.54.14-1.84-.35-.43-.69-.26-1.46.46-1.91.96-.6,1.93-1.19,2.9-1.78.11-.07.22-.15.39-.26-.2-.15-.36-.29-.53-.41-3.87-2.7-7.46-5.74-10.76-9.11-5.52-5.62-10.06-11.96-13.69-18.96-4.13-7.96-6.85-16.39-8.7-25.14-.84-3.98-1.41-8-1.82-12.04-.19-1.89-.34-3.79-.52-5.68-.03-.33.08-.53.34-.73,1.8-1.39,3.84-2.3,5.95-3.07.54-.2,1.08-.38,1.62-.57.86-.29,1.18-.72,1.24-1.65.05-.78-.21-1.48-.54-2.16-.63-1.3-1.18-2.63-1.32-4.07-.18-1.78-.29-3.57-.36-5.36-.05-1.43,0-2.87,0-4.31,0-.92.3-1.72.97-2.36.25-.24.34-.5.33-.84-.03-1.18-.01-2.36.33-3.5.23-.75.55-1.48.88-2.2.11-.24.12-.4-.02-.63-.47-.81-1.03-1.6-1.36-2.46-.84-2.17-.95-4.42-.39-6.69.4-1.62,1.4-2.71,2.92-3.37,1.82-.8,3.69-.98,5.61-.43,1.46.42,2.91.86,4.35,1.32.47.15.89.15,1.35-.03,2.05-.8,4.18-1.27,6.38-1.37.23-.01.47-.04.7,0,1.11.16,2.12-.13,3.14-.54,1.6-.64,3.17-1.35,4.89-1.63,1.17-.19,2.36-.32,3.53-.51,1.47-.24,2.93-.56,4.4-.74,2.05-.25,4.11-.28,6.17.05,2,.33,4.02.49,6,.88,3.59.71,6.29,2.73,7.89,6.01,1.06,2.17,2.32,4.17,3.86,6.02,1.06,1.26,2.1,2.53,3.08,3.84,1.98,2.64,3.18,5.65,3.96,8.84.51,2.08.97,4.19,1.96,6.12,1.81,3.51,2.8,7.31,3.98,11.04.19.6.29,1.22.42,1.84.07.34.25.54.55.71,1.01.6,1.99,1.24,2.99,1.86.28.18.38.43.35.77-.45,6.96-1.47,13.84-3.03,20.63-2.09,9.07-5.32,17.71-10,25.78-3.52,6.06-7.82,11.5-12.84,16.4-2.78,2.72-5.81,5.11-8.9,7.44-.38.29-.74.6-1.18.95Zm16.06-93.15s-.07.02-.11.03c-.62-1.64-1.2-3.3-1.86-4.92-.67-1.64-1.44-3.23-2.35-4.76-.93.64-1.25,1.64-.84,2.67.46,1.16.95,2.3,1.43,3.44.28.67.56,1.33.85,2.01.22-.05.4-.08.59-.12.03,1.5-2.16,11.97-2.87,13.63-.07-.12-.13-.23-.21-.36-.38.55-.71,1.02-1.04,1.49-.02-.19.04-.32.08-.46.34-.95.79-1.88.99-2.86.63-3.15,1.16-6.32,1.74-9.48.15-.85.05-1.66-.31-2.44-.59-1.28-1.18-2.56-1.77-3.83-.14-.31-.32-.6-.48-.91-.2-.38-.52-.48-.93-.45-.79.06-.91.28-.72,1.04.52,2.04,1,4.09,1.49,6.13.07.28.02.55-.28.75-.11-.89-.16-1.76-.33-2.6-.52-2.63-1.52-5.1-2.63-7.53-.53-1.17-1.15-2.3-1.76-3.43-.9-1.66-2.43-2.71-3.83-3.89-1.38-1.16-3.03-1.65-4.73-2.05-.03,0-.07.02-.17.04.7.48,1.35.93,2,1.38-.02.03-.04.07-.06.1-.09-.03-.17-.06-.26-.09-1.04-.42-2.07-.85-3.12-1.25-.85-.33-1.7-.73-2.59-.9-1.53-.28-3.11-.34-4.66-.15-1.97.25-3.92.33-5.89.02-1.1-.17-2.19-.31-3.31-.16-.31.04-.63.06-.94.09,0-.03-.01-.05-.02-.08.45-.2.9-.41,1.35-.61-.01-.05-.03-.1-.04-.15-.19,0-.38-.03-.56,0-1.21.2-2.46.28-3.62.65-1.91.6-3.77,1.39-5.64,2.09-.15.06-.3.11-.45.16,0-.03-.02-.05-.03-.08.32-.28.65-.57,1.08-.94-.45-.25-.8-.48-1.18-.63-1.24-.49-2.5-.94-3.75-1.42-.73-.28-1.47-.36-2.2-.1-.61.22-1.2.53-1.8.78-.8.32-1.23.91-1.39,1.74-.18.93-.38,1.85-.58,2.77-.19.86-.18,1.71.12,2.55.31.89.6,1.79.98,2.65.2.46.53.88.85,1.28.12.15.48.34.53.3.18-.18.34-.42.41-.67.05-.21,0-.46-.07-.68-.08-.26-.22-.5-.32-.75-.24-.56-.32-1.12-.14-1.72.34-1.09.67-2.19.98-3.3.08-.29.23-.44.51-.52.37-.1.73-.22,1.09-.35.09-.03.23-.13.22-.18-.04-.28.17-.27.33-.31.23-.05.45-.11.68-.15.51-.1.88.08,1.1.55.34.73.31,1.38-.25,2.04-1.08,1.26-2.01,2.63-2.76,4.12-.73,1.47-1.42,2.96-2.14,4.43-.36.74-.72,1.47-.79,2.31-.11,1.38-.22,2.75-.35,4.13-.18,1.86-.1,3.69.5,5.47.34,1.01.68,2.02,1,3.03.23.73.61,1.37,1.09,1.95,1.67,2.03,3.32,4.07,4.99,6.1,1.2,1.47,2.41,2.95,3.62,4.41.16.19.35.35.56.56.04-.13.07-.16.06-.2-.09-1.56-.17-3.11-.28-4.67-.01-.17-.2-.32-.3-.48-.03.01-.06.02-.08.04.04-.52.08-1.04.12-1.57-.04-.03-.09-.05-.13-.08-.09.16-.18.32-.26.49-.04-.03-.08-.06-.12-.09.06-.97.37-1.91.38-2.88-.04,0-.08-.01-.12-.02-.29.76-.59,1.52-.88,2.28-.11-.18-.14-.34-.13-.5.1-1.25.21-2.5.31-3.76.03-.4.14-.87-.01-1.2-.24-.53-.12-.97.07-1.44.16-.41.31-.82.5-1.21.2-.41.46-.8.69-1.19.03.01.06.03.09.04-.13.49-.25.97-.4,1.52.23-.11.38-.18.59-.27-.16,1.03-.32,2-.47,2.97.05.02.1.03.15.05.5-.67,1-1.33,1.51-2,.31.24.24.48.13.73-.33.75-.66,1.5-.96,2.26-.08.19-.08.41-.12.62.03,0,.07.01.1.02.48-.41.96-.81,1.43-1.22.03.03.05.05.08.08-.13.32-.26.65-.4.99.23.09.44.17.66.26-.02.09-.02.16-.05.22-.31.68-.19,1.32.11,1.97.47,1,.9,2.02,1.35,3.03.06.14.15.26.25.42.1-.2.16-.34.23-.48.07.31.06.6.04.89-.1,1.17-.23,2.34-.3,3.51-.05,1.01.38,1.83,1.15,2.47.47.39.99.74,1.44,1.15.81.74,1.74,1.08,2.84,1.03,2.41-.1,4.36-.95,5.46-3.25.12-.26.25-.51.39-.77.76-1.41,1.51-2.82,1.84-4.41.46-2.18.94-4.35,1.42-6.53.04-.18.11-.36.16-.54.08.38.08.73.04,1.09-.15,1.52-.31,3.05-.45,4.57-.03.28.02.57.03.91.23-.11.36-.18.55-.27-.06.19-.1.31-.15.43-.3.76-.54,1.56-.93,2.27-.55,1-.55,1.92.1,2.86.11.16.2.33.29.49.04-.01.08-.02.13-.04v-1.88c.25.22.41.37.67.6v-1.65c.19.03.32.06.46.08.06-.35.11-.66.16-1.01.4.22.53.01.65-.27.1-.24.2-.48.34-.7.08-.12.23-.22.36-.25.85-.2,1.71-.38,2.56-.56.23-.05.35-.18.35-.43,0-.4-.02-.8.02-1.19.02-.27.12-.54.19-.86.71.41,1.33.77,1.95,1.13.03-.04.07-.08.1-.12-.27-.63-.55-1.27-.86-1.98.5.13.86.22,1.27.32,0-.21,0-.36,0-.51,0-.85,0-1.7,0-2.55,0-.62.08-.68.67-.66.08,0,.16,0,.28,0-.06-.39-.12-.74-.18-1.1.04-.02.09-.04.13-.06.17.13.35.24.5.39,1.47,1.5,2.17,3.32,2.25,5.39,0,.14-.04.36-.13.4-.53.21-.52.68-.61,1.12-.09.43-.19.85-.32,1.37-.14-.22-.22-.33-.29-.45-.25-.4-.43-.47-.83-.22-.18.12-.3.33-.42.52-.11.18-.2.39-.28.59-.14.36-.28.72-.41,1.09-.05.16-.06.34-.09.56-.37-.24-.7-.45-1.06-.68-.22.4-.4.78-.64,1.12-.59.83-1.26,1.57-2.44,1.41-.11-.02-.26.07-.34.15-.31.29-.59.6-.91.88-.26.24-.48.48-.5.86,0,.1-.1.26-.18.28-.36.09-.43.38-.54.66-.15.41-.32.82-.48,1.22-.03-.01-.06-.02-.1-.03-.09-.28-.18-.56-.3-.91-.76.6-1.18,1.34-1.45,2.24-.19-.35-.34-.65-.55-1.04-.29.75-.73,1.23-1.32,1.56-.16.09-.43.16-.57.09-.41-.21-.78-.32-1.24.03-.07-.51-.08-.93-.19-1.33-.07-.26-.2-.59-.41-.7-.55-.28-1.16-.33-1.71.06-.47.33-.98.46-1.55.45-.31,0-.63-.02-.94,0-1.17.09-2.18-.25-3.08-.99-.16-.13-.36-.23-.53-.34-.03.02-.07.04-.1.07.06.24.06.52.18.73.24.41.48.84.82,1.17,1.67,1.6,3.65,2.63,5.91,3.11,1.16.25,2.3.13,3.32-.52.89-.56,1.78-1.14,2.6-1.79,2.86-2.28,5.68-4.59,8.52-6.89.18-.14.37-.26.56-.39.02.02.03.05.05.07-.68.67-1.37,1.34-2.05,2,.03.04.06.08.09.12.49-.14.98-.27,1.47-.41-.88.52-1.33,1.34-1.72,2.22-.46,1.02-1.06,1.94-1.83,2.75-.56.6-1.11,1.21-1.65,1.83-.14.16-.23.37-.34.56.03.03.07.05.1.08.15-.1.32-.2.46-.32,1.11-.93,2.23-1.85,3.34-2.79,1.36-1.17,2.7-2.35,4.07-3.52.27-.23.59-.42.89-.62.03.03.05.07.08.1-.64,1.37-1.27,2.74-1.91,4.11.03.04.06.08.1.12.21-.13.47-.22.64-.4,1.82-1.91,3.62-3.84,5.45-5.74.52-.54,1.09-1.02,1.64-1.53.03.02.06.04.09.07-.53,1.62-1.22,3.19-1.72,4.9.51-.19.76-.42,1.07-.99.47-.87.91-1.75,1.38-2.61.41-.75.8-1.53,1.31-2.22.5-.69.96-1.39,1.26-2.19.46-1.23.92-2.46,1.39-3.68.05-.13.11-.25.17-.38.02,0,.05.02.07.02-.22.97-.45,1.93-.67,2.9.17-.05.28-.14.34-.25.29-.59.62-1.16.84-1.77.37-1.01.65-2.06.99-3.08.15-.45.37-.88.57-1.31.04-.09.17-.22.22-.21.29.09.33-.15.41-.3.45-.78.89-1.57,1.34-2.35.08-.14.19-.27.34-.49.16.59.07,1.05-.06,1.51-.32,1.09-.6,2.19-.97,3.26-.71,2.05-1.02,4.15-1.02,6.32,0,1.34-.17,2.69.22,3.99.24.8.2,1.58.05,2.39-.49,2.61-.96,5.22-1.42,7.83-.07.38-.05.76.35,1.06.77-2.77,1.52-5.5,2.28-8.24.07,0,.13,0,.2.01.03.48.11.96.1,1.44-.08,2.49-.19,4.97-.28,7.46,0,.2.06.4.09.6.05,0,.11.01.16.02.57-1.26,1.13-2.52,1.7-3.78.13.18.19.36.2.54.03.57.11,1.15.05,1.72-.22,2.11-.46,4.21-.73,6.31-.21,1.62-.36,3.24-.28,4.87.03.56.28.68.74.35.56-.4,1.1-.81,1.66-1.21.35-.25.7-.5,1.08-.77.37.83.57,1.64.46,2.48-.21,1.71-.45,3.41-.71,5.12-.27,1.83-.58,3.65-.87,5.47-.04.24-.05.46.29.6.94-2.35,1.91-4.66,2.41-7.14.06.51.06,1.01.06,1.51,0,.89-.08,1.78,0,2.66.04.45.04.85-.15,1.27-1.25,2.79-2.4,5.64-3.77,8.37-3.82,7.63-8.78,14.46-14.87,20.45-3.21,3.16-6.67,6.01-10.35,8.59-.27.19-.45.18-.71,0-5.64-3.89-10.7-8.42-15.12-13.66-5.52-6.54-9.78-13.83-13.04-21.72-.05-.12-.08-.25-.12-.38.03.01.07.02.1.04.1-.15.26-.28.29-.45.35-1.57.54-3.15.5-4.76-.01-.45-.06-.89-.1-1.44-.67.7-.62,1.66-1.24,2.3-.09-.15-.15-.23-.21-.33-.8-1.33-.97-2.8-.99-4.3-.02-1.6.18-3.16.62-4.7.04-.16.02-.4-.07-.52-.45-.52-.54-.99-.26-1.6.35-.76.72-1.51,1.02-2.28.08-.2-.05-.48-.08-.72-.22.06-.47.08-.66.19-.31.17-.57.43-.87.61-.12.07-.3.04-.46.05-.01-.13-.04-.27-.03-.4.02-.13.08-.26.12-.39.32-.99.65-1.97.97-2.96.09-.29.14-.58-.16-.82-.5.4-.98.8-1.52,1.23-.02-.29-.08-.49-.05-.69.12-.84.26-1.67.39-2.51.15-1.04.52-1.97,1.2-2.79.24-.3.47-.61.67-.93.09-.14.08-.34.12-.51-.04-.02-.09-.04-.13-.05-.73.47-1.47.93-2.2,1.4-.03-.03-.06-.06-.08-.1.06-.16.1-.34.18-.49.39-.66.79-1.31,1.19-1.96.06-.09.19-.23.17-.27-.26-.38.15-.51.28-.72.14-.23.33-.42.51-.64-1.06-1.32-2.23-2.54-2.84-4.16-.14.17-.22.3-.27.45-.69,2.1-1.39,4.2-2.05,6.31-.77,2.48-1.02,5-.59,7.58.2,1.22.25,2.45.09,3.68-.03.23,0,.47.04.69.39,2.11.8,4.22,1.18,6.33.34,1.95.87,3.83,1.83,5.58.51.93,1.09,1.85,1.46,2.83,2.95,7.86,6.84,15.19,11.9,21.9,3.23,4.28,7,8.06,11,11.59,2.01,1.77,4.21,3.31,6.33,4.96.12.1.24.2.41.33-.33.21-.59.4-.87.57-2.59,1.56-5.18,3.12-7.77,4.68-.22.13-.44.28-.61.47-.24.28-.11.57.27.59.17.01.36-.03.51-.1.25-.11.49-.25.72-.39,2.74-1.65,5.49-3.29,8.22-4.95.31-.19.52-.2.84,0,2.74,1.66,5.48,3.3,8.23,4.94.3.18.61.37.92.54.29.16.54.05.72-.19.18-.25,0-.44-.18-.6-.14-.11-.29-.21-.44-.3-2.74-1.65-5.49-3.3-8.23-4.94-.16-.09-.3-.2-.48-.33.43-.33.81-.63,1.2-.9,6.54-4.59,12.17-10.12,16.96-16.51,4.9-6.54,8.61-13.72,11.45-21.36,2.54-6.84,4.51-13.85,6.15-20.95.5-2.15.56-4.32-.08-6.45-.47-1.54-1.02-3.06-1.53-4.59-.06-.19-.09-.38-.13-.57.04-.01.08-.02.11-.03.61,1.4,1.22,2.79,1.83,4.19.06-.02.12-.05.19-.07-.16-.59-.27-1.2-.48-1.77-.87-2.42-1.77-4.82-2.65-7.23-.07-.2-.14-.41-.21-.61,1.01,1.72,1.7,3.59,2.64,5.33.06-.02.11-.05.17-.07-1.42-3.95-2.84-7.9-4.28-11.91.46,0,.31-.28.25-.52-.68-2.52-1.37-5.04-2.03-7.56-.34-1.3-.76-2.57-1.49-3.71-.08-.12-.18-.24-.27-.35-.02.01-.05.03-.07.04.1.55.21,1.09.31,1.64-.02,0-.04.01-.06.02-.31-.76-.63-1.51-.97-2.34-.08.12-.12.18-.18.28-.29-.47-.56-.9-.82-1.34-.04.02-.08.03-.12.05.24,1.05.48,2.11.72,3.16-.03.01-.07.02-.1.03-.06-.12-.12-.23-.17-.35-.44-1.05-.88-2.09-1.32-3.14-.96-2.28-1.93-4.56-3.29-6.64-.09-.15-.22-.27-.33-.41-.03.02-.06.04-.09.06.08.24.15.49.24.73.36.98.72,1.95,1.07,2.92.13.37.25.74-.03,1.25-.17-.38-.34-.66-.43-.96-.67-2.14-1.29-4.29-1.98-6.42-1.01-3.09-3.02-5.25-6.07-6.48-2.74-1.1-5.57-1.76-8.52-1.92-2.92-.15-5.79.07-8.62.83-.15.04-.29.13-.43.2.01.04.02.08.03.12.17.01.34.04.51.04.98.02,1.97-.01,2.95.04,2.39.13,4.75.53,7.1,1.03,2.27.49,4.53,1.02,6.7,1.88.26.1.51.25.76.38-.02.04-.04.08-.05.12-.22-.04-.45-.07-.67-.14-2.24-.65-4.49-1.29-6.73-1.96-1.37-.41-2.75-.71-4.19-.65-2.7.11-5.41.24-8.11.35-1.13.05-2.29-.03-3.37.37-1.24.46-2.44,1.04-3.65,1.58-.06.02-.1.08-.19.17.41.07.75.17,1.1.18,1.69.04,3.39.08,5.08.09,1.15,0,2.31-.14,3.44,0,1.5.18,2.97.58,4.46.86,1.97.36,3.84.99,5.44,2.24.11.09.25.13.4.21.08-.26.16-.47.2-.68.2-.98.83-1.61,1.72-1.94,1.28-.47,2.59-.7,3.97-.28,1.37.41,2.65.94,3.69,1.95.52.51.84,1.11.87,1.84.01.31.04.63.08.94.15,1.2.72,2.23,1.29,3.26,1.12,1.98,2.09,4.03,2.72,6.22.22.78.39,1.57.59,2.36-.11,0-.15-.02-.17-.06-.09-.21-.2-.42-.27-.64-.81-2.63-2.1-5.04-3.51-7.39-.11-.19-.3-.33-.45-.49-.04.03-.07.06-.11.09-.03.69.23,1.31.5,1.91,1.3,2.88,2.33,5.86,3.22,8.89.1.36.15.73.22,1.09Zm-8.31-8.21c.52.26,1.63.14,2.01-.17.85-.71,1.57-1.55,1.73-2.66.16-1.11.2-2.26.17-3.39-.05-1.84-.7-3.39-2.47-4.27-.18-.09-.35-.22-.52-.32-1.42-.89-2.94-1.04-4.53-.55-.97.3-1.66.91-2.03,1.87-.36.94.05,1.71,1.08,1.97.17-.21.33-.42.52-.66.42.28.71.06,1.02-.21.46-.4.94-.78,1.61-.91-.14.32-.26.58-.38.87.26.17.47.36.71.47.68.31,1.09.85,1.36,1.52.31.76.65,1.51.92,2.28.12.36.14.77.12,1.15-.03.61-.09,1.22-.2,1.82-.03.2-.2.4-.36.55-.22.22-.47.4-.76.63ZM14.3,42.82c-.34.16-.47,0-.58-.29-.12-.31-.3-.59-.46-.9-.16.18-.27.31-.45.51-.22-.73-.41-1.39-.61-2.05-.05-.16-.14-.32-.24-.47-.13-.21-.35-.39-.41-.61-.98-3.26-1.94-6.52-2.9-9.78-.05-.17-.12-.34-.18-.51-.04,0-.08.01-.12.02,0,.14-.02.28-.02.42.08,1.72.2,3.44.23,5.16.03,1.93.58,3.69,1.55,5.33.64,1.08,1.32,2.15,1.93,3.24.72,1.3,1.7,2.33,2.97,3.11,1.67,1.01,3.19,2.21,4.52,3.65.13.14.32.23.48.35.04-.04.08-.09.11-.13-1.54-1.89-3.07-3.78-4.65-5.72-.15.29-.24.45-.35.68-.28-.69-.54-1.31-.82-2Zm15.85,34.72s.05,0,.08-.01c.06.14.13.29.19.43.49,1.2.98,2.4,1.46,3.61.09.22.17.36.45.36.3,0,.4-.13.49-.38.11-.32.26-.63.38-.95.41-1.02.83-2.04,1.24-3.05.03,0,.06,0,.09.01v4.33h.78v-5.97c-.2,0-.38.02-.56,0-.36-.06-.53.1-.65.44-.29.81-.63,1.6-.95,2.4-.26.64-.52,1.28-.81,2-.1-.23-.16-.36-.21-.5-.54-1.33-1.07-2.66-1.61-3.99-.05-.12-.17-.28-.27-.29-.27-.04-.56-.01-.85-.01v5.94h.74v-4.34Zm20.2-5.81v-5.9h-.81v4.41c-.16-.23-.26-.35-.34-.47-.79-1.2-1.58-2.4-2.37-3.6-.3-.46-.49-.52-1.03-.35v5.91h.8v-4.29c.17.1.26.22.34.35.77,1.18,1.54,2.36,2.31,3.54.33.5.45.55,1.09.41Zm-13.59,10.16c.9,0,1.76.05,2.62-.01.77-.06,1.28-.57,1.42-1.27.17-.82-.1-1.45-.88-1.85.1-.09.18-.15.25-.21.87-.74.65-2.12-.44-2.48-.96-.31-1.96-.15-2.96-.14v5.96Zm-10.98-6.07c-.95.03-1.7.4-2.1,1.3-.52,1.19-.53,2.39,0,3.58.39.89,1.12,1.32,2.09,1.32.96,0,1.72-.39,2.09-1.3.47-1.15.54-2.34.05-3.51-.39-.93-1.13-1.37-2.12-1.39Zm.22-4.05c.7,0,1.36.04,2,0,1.14-.09,1.95-.81,2.22-1.93.19-.77.18-1.55-.05-2.31-.25-.82-.76-1.47-1.63-1.62-.82-.14-1.67-.12-2.54-.16v6.03Zm-14.36-28.21c.02.78.36,1.42.76,2.04.97,1.51,2.08,2.92,3.34,4.2,1.3,1.31,2.66,2.56,4.3,3.46.13.07.28.11.42.17l.11-.14c-2.9-3.3-6.23-6.22-8.92-9.73Zm56.82,34.03c-.02-.58-.2-.96-.59-1.28-.82-.66-2.09-.69-2.95-.07-.78.56-.86,1.63-.14,2.27.25.22.57.37.88.51.5.22,1.02.38,1.52.61.5.22.64.9.31,1.32-.53.66-2.11.46-2.46-.31-.23-.5-.28-.53-.9-.38.03.55.24,1,.71,1.3.92.59,1.88.63,2.85.17.61-.29.92-.95.79-1.61-.13-.72-.64-1.09-1.26-1.34-.54-.22-1.1-.41-1.64-.64-.34-.14-.48-.43-.44-.8.04-.38.23-.66.61-.73.35-.06.71-.07,1.06-.05.35.02.59.25.74.57.25.56.25.56.91.46Zm-12.71-10.13c0-.54-.18-.97-.59-1.28-.73-.56-1.54-.66-2.4-.36-.65.23-1.11.65-1.15,1.39-.04.75.26,1.2,1.04,1.54.58.25,1.17.46,1.75.69.39.15.58.45.57.86-.02.42-.27.67-.66.8-.98.33-1.73-.03-2.15-1.03h-.68c-.05.46.08.83.41,1.15.77.75,2.36.88,3.25.26.92-.64.86-2.02-.11-2.57-.24-.13-.5-.23-.75-.33-.46-.19-.92-.34-1.37-.55-.53-.25-.66-.87-.3-1.31.51-.61,1.91-.42,2.22.3.24.55.26.56.9.44Zm7.68,8.51h-3.7v5.9h3.75v-.64h-2.92v-2.09h2.48v-.66c-.74,0-1.45,0-2.16,0-.2,0-.36-.03-.36-.27,0-.54,0-1.08,0-1.67h2.91v-.57Zm-16.75,5.89c-.03-.1-.06-.21-.1-.31-.68-1.77-1.36-3.55-2.03-5.32-.09-.25-.22-.33-.48-.33-.27,0-.41.06-.51.34-.49,1.32-1,2.63-1.5,3.95-.21.56-.42,1.12-.63,1.69q.79.09,1.03-.54.36-.95,1.39-.95h.45q1,0,1.35.94.26.68,1.02.54Zm-5.67-10.1h3.72v-.64h-2.91v-2.13h2.49v-.66h-2.51v-1.89c.82,0,1.61,0,2.41,0,.6,0,.63-.04.46-.64h-3.66v5.96Zm-8.68-.66c0-.52,0-.98,0-1.44,0-.62-.15-.65.63-.65.64,0,1.27,0,1.91,0v-.69h-2.51v-1.91h2.89v-.6h-3.71v5.94h3.72v-.65h-2.93Zm25.32-4.69h2.89v-.6h-3.69v5.92h3.73v-.64h-2.92v-2.08h2.49v-.68h-2.5v-1.92Zm-35.25,13.63c-.32.02-.7-.21-.82.35-.13.6-.56.88-1.15.93-.69.06-1.22-.19-1.46-.75-.45-1.08-.45-2.19-.01-3.27.24-.6.78-.82,1.4-.8.57.01.99.27,1.2.83.21.58.22.58.88.46.02-.69-.37-1.37-.95-1.69-1.35-.74-3-.09-3.45,1.38-.26.83-.26,1.67-.09,2.51.29,1.49,1.34,2.23,2.82,1.99.99-.16,1.75-1.04,1.64-1.94Zm31.39-4.07c.01.06.01.13.03.18.68,1.85,1.37,3.69,2.04,5.54.1.29.31.2.5.22.24.03.36-.06.45-.29.65-1.8,1.32-3.59,1.98-5.38.03-.08.04-.17.06-.26q-.82-.08-1.07.63c-.44,1.25-.87,2.5-1.31,3.75-.04.1-.09.2-.16.37-.07-.18-.12-.3-.16-.41-.43-1.23-.85-2.45-1.27-3.68q-.26-.75-1.08-.67Zm-17.49-10.17v5.92h.83c0-.72.02-1.41,0-2.11-.02-.39.1-.52.5-.5.66.03,1.33,0,1.98,0q.06-.69-.54-.69c-.62,0-1.25,0-1.89,0v-2h2.79v-.64h-3.67Zm12.93,10.78h1.89v-.62h-4.57v.62h1.87v5.3h.81v-5.3Zm3.63,5.31v-5.95h-.71v5.95h.71Zm-25.48-2.95c-.02-.35,0-.71-.05-1.06-.08-.68-.56-1.22-1.16-1.33-.75-.15-1.39.08-1.68.71-.51,1.09-.5,2.23,0,3.32.26.56.77.78,1.39.75.61-.03,1.08-.3,1.27-.87.16-.48.2-1,.29-1.51-.02,0-.04-.01-.07-.02Zm.42-7.82c.89-.05,1.42-.48,1.64-1.33.19-.76.18-1.51-.07-2.26-.2-.6-.61-.98-1.24-1.05-.43-.05-.87,0-1.32,0v4.66c.36,0,.67.01.99,0Zm16.23,5.89c-.31.88-.63,1.75-.95,2.65h2.02c-.33-.91-.65-1.78-.97-2.66-.03,0-.07,0-.1,0Z"/>
    <path class="cls-7" d="m29.44,41.64c-.09-.42-.27-.85-.27-1.27.01-1.35.09-2.7.15-4.05,0-.07.03-.13.09-.19.35,1.82.36,3.65.19,5.48-.05.01-.11.02-.16.03Z"/>
    <path class="cls-6" d="m34.7,38.01c-.18,1.21-.64,2.34-1.16,3.46-.21-.7-.12-1.44.06-2.1.15-.53.63-.96.97-1.44l.13.08Z"/>
  </g>
</svg>