<?xml version="1.0" encoding="UTF-8"?>
<svg id="Layer_1" data-name="Layer 1" xmlns="http://www.w3.org/2000/svg" viewBox="0 0 59.8 70.36">
  <defs>
    <style>
      .cls-1 {
        fill: #fff;
      }

      .cls-2 {
        fill: #3e3bcc;
      }

      .cls-3 {
        fill: #2c2292;
      }
    </style>
  </defs>
  <g>
    <path class="cls-2" d="m29.9,70.36c-1,.02-1.87-.67-2.74-1.19-7.27-4.37-13.12-10.19-17.51-17.45-2.91-4.82-5.01-9.99-6.52-15.42C1.24,29.53.35,22.6,0,15.58c-.08-1.55,1.11-2.88,2.84-3.07,3.54-.4,6.63-1.93,9.65-3.7,4.12-2.41,8.24-4.85,12.45-7.1C26.46.9,28.07-.02,29.82,0"/>
    <path class="cls-3" d="m29.82,0c.58,0,1.18.12,1.8.37,2.15.88,4.29,1.8,6.32,2.92,4.17,2.31,8.18,4.91,12.41,7.09,2.08,1.07,4.49,1.55,6.8,2.11,1.5.36,2.7,1.54,2.65,3.06-.33,6.13-1.05,12.19-2.49,18.18-1.68,7.02-4.22,13.65-8.17,19.67-4.64,7.07-10.64,12.73-18.18,16.66-.37.19-.72.28-1.05.28"/>
  </g>
  <path class="cls-1" d="m51.52,17.57c-.06.01-.12.02-.18.04.02,0,.04.02.05.02.75.03,1.33.38,1.8.94.4.49.58,1.06.56,1.69-.02.64-.24,1.22-.71,1.68-.73.73-1.46,1.46-2.19,2.19-5.77,5.77-11.55,11.54-17.32,17.31-1.43,1.43-2.86,2.85-4.29,4.28-.52.52-1.11.93-1.82,1.16-.68.22-1.37.31-2.07.18-.87-.15-1.65-.52-2.29-1.13-.25-.24-.5-.48-.74-.73-1.99-1.99-3.98-3.98-5.97-5.96-.81-.81-1.63-1.61-2.43-2.43-.24-.25-.48-.51-.68-.79-.14-.2-.23-.44-.3-.67-.05-.15-.03-.31-.05-.45-.02.07-.04.16-.07.25,0-.31,0-.61,0-.92.01.04.03.08.04.14.02-.13.03-.25.05-.36.27-1.06,1.23-1.85,2.32-1.92.78-.05,1.45.22,2,.77,2,1.99,4,3.99,5.99,5.98.91.91,1.83,1.83,2.74,2.74.05.05.07.06.13,0,.76-.77,1.53-1.53,2.3-2.29,5.77-5.77,11.54-11.53,17.31-17.3,1.2-1.2,2.4-2.4,3.6-3.6.39-.39.85-.66,1.4-.75.1-.02.2-.02.31-.03-.06-.01-.11-.03-.17-.04.22,0,.44,0,.66,0Z"/>
</svg>