<svg xmlns="http://www.w3.org/2000/svg" id="Layer_1" data-name="Layer 1" viewBox="0 0 45.87 41.55">
  <defs>
    <style>
      .cls-1 {
        fill: #e49e25;
      }
    </style>
  </defs>
  <path class="cls-1" d="m18.84,0v6.79c-2.21.44-4.04,1.49-5.49,3.14-1.46,1.66-2.5,3.73-3.14,6.21-.64,2.48-.96,5.21-.96,8.19h7.85v17.22H0v-15.4c0-6.4.99-11.39,2.96-14.98,1.98-3.58,4.42-6.23,7.33-7.95,2.91-1.71,5.76-2.79,8.55-3.23Zm27.03,0v6.79c-2.21.44-4.04,1.49-5.49,3.14-1.46,1.66-2.5,3.73-3.14,6.21-.64,2.48-.96,5.21-.96,8.19h8.02v17.22h-17.09v-15.4c0-6.4.96-11.39,2.88-14.98,1.92-3.58,4.33-6.23,7.24-7.95,2.91-1.71,5.76-2.79,8.55-3.23Z"/>
</svg>