<?xml version="1.0" encoding="UTF-8"?>
<svg id="Layer_1" data-name="Layer 1" xmlns="http://www.w3.org/2000/svg" viewBox="0 0 52 52">
  <defs>
    <style>
      .cls-1 {
        fill: #30308c;
      }
    </style>
  </defs>
  <path class="cls-1" d="m35.92,51.88v-20.04h6.69c.34-2.65.66-5.19,1-7.84h-7.59c0-2.25-.14-4.41.05-6.54.12-1.46,1.25-2.17,3-2.24,1.56-.06,3.12-.01,4.72-.01.05-.23.1-.38.1-.53,0-1.95.02-3.9,0-5.84,0-.24-.27-.69-.42-.69-2.65-.06-5.34-.35-7.95,0-4.45.59-7.37,4.02-7.63,8.49-.12,2.11-.09,4.22-.12,6.33,0,.3,0,.6,0,1.02h-6.72v7.83h6.64v20.08c-.28,0-.6,0-.92,0-5.46,0-10.92,0-16.37,0-5.75-.01-10.21-4.35-10.23-10.12-.05-10.5-.04-21.01,0-31.51C.19,4.51,4.56.16,10.32.14c10.45-.04,20.9-.04,31.35,0,5.78.02,10.15,4.39,10.17,10.19.04,10.45.05,20.9,0,31.35-.03,5.86-4.48,10.18-10.34,10.2-1.83,0-3.66,0-5.58,0Z"/>
</svg>