<?xml version="1.0" encoding="UTF-8"?>
<svg id="Layer_1" data-name="Layer 1" xmlns="http://www.w3.org/2000/svg" viewBox="0 0 52 52">
  <defs>
    <style>
      .cls-1 {
        fill: #30308c;
      }
    </style>
  </defs>
  <path class="cls-1" d="m25.98,51.74c-4.83,0-9.65-.01-14.48,0-5.81.02-10.7-4.34-11.21-10.13-.15-1.66-.1-3.34-.1-5.01,0-8.28-.05-16.56.02-24.84C.25,7.27,2.22,3.8,6.18,1.58,7.79.67,9.55.23,11.38.23c9.71-.02,19.41-.02,29.12,0,5.68,0,10.4,4.11,11.16,9.75.19,1.38.15,2.79.16,4.18.01,8.64,0,17.28.01,25.91.01,6.79-4.82,11.69-11.62,11.72-4.74.02-9.49,0-14.23,0,0-.01,0-.03,0-.04Zm18.78-25.67s.06,0,.09,0c0-2.77,0-5.54,0-8.31-.01-6.08-4.75-10.97-10.83-11.05-5.29-.07-10.58-.08-15.87,0-6.27.09-10.93,4.92-10.92,11.19,0,5.57-.01,11.13,0,16.7.02,5.74,4.74,10.69,10.47,10.8,5.56.11,11.13.09,16.69-.01,5.29-.1,10-4.53,10.34-9.79.2-3.17.04-6.36.04-9.54Z"/>
  <path class="cls-1" d="m10.14,26.02c0-2.74-.01-5.48,0-8.22.03-4.59,3.64-8.14,8.24-8.14,5.02,0,10.03,0,15.05,0,4.91,0,8.46,3.53,8.46,8.43,0,5.29,0,10.58.01,15.87,0,4.87-3.36,8.43-8.22,8.51-5.26.08-10.53.06-15.79-.02-4.2-.06-7.69-3.7-7.75-7.96-.04-2.82,0-5.65,0-8.47h0Zm5.59.02c.01,5.72,4.54,10.27,10.2,10.27,5.86,0,10.42-4.62,10.41-10.53,0-6.03-4.26-10.08-10.58-10.08-5.57,0-10.04,4.62-10.03,10.34Zm20.74-13c-1.37,0-2.38,1.02-2.38,2.39,0,1.44,1.07,2.51,2.49,2.48,1.36-.02,2.43-1.14,2.4-2.5-.03-1.38-1.09-2.38-2.51-2.37Z"/>
  <path class="cls-1" d="m32.74,25.78c0,3.87-3.02,6.99-6.72,6.98-3.68-.01-6.8-3.15-6.74-6.79.06-3.72,3-6.69,6.61-6.69,4.24,0,6.86,2.48,6.85,6.5Z"/>
</svg>