<?xml version="1.0" encoding="UTF-8"?>
<svg id="Layer_1" data-name="Layer 1" xmlns="http://www.w3.org/2000/svg" viewBox="0 0 26 26">
  <defs>
    <style>
      .cls-1 {
        fill: #30308c;
      }
    </style>
  </defs>
  <path class="cls-1" d="m0,5.94c.16-.33.31-.66.52-1.1,2.71,2.37,5.38,4.7,8.1,7.08-2.73,3.05-5.4,6.05-8.12,9.09C.31,20.76.16,20.56,0,20.36,0,15.55,0,10.75,0,5.94Z"/>
  <path class="cls-1" d="m1.42,22.43c2.93-3.28,5.66-6.32,8.42-9.42.83.72,1.63,1.39,2.4,2.09.52.47.99.47,1.51,0,.77-.7,1.57-1.37,2.4-2.09,2.77,3.09,5.49,6.14,8.39,9.38-.83.16-1.47.38-2.11.38-6.29.03-12.59.02-18.88,0-.62,0-1.24-.2-2.14-.35Z"/>
  <path class="cls-1" d="m24.4,3.62c-3.94,3.44-7.62,6.67-11.4,9.97C9.26,10.32,5.55,7.08,1.62,3.65c.77-.14,1.3-.33,1.83-.33,6.36-.02,12.72-.02,19.08,0,.52,0,1.04.17,1.86.31Z"/>
  <path class="cls-1" d="m25.67,21.21c-2.91-3.25-5.58-6.24-8.29-9.28,2.71-2.37,5.34-4.68,8.19-7.17.17.8.4,1.42.41,2.04.03,4.16.03,8.31,0,12.47,0,.55-.17,1.1-.31,1.94Z"/>
</svg>