<?xml version="1.0" encoding="UTF-8"?>
<svg id="Layer_1" data-name="Layer 1" xmlns="http://www.w3.org/2000/svg" viewBox="0 0 26 26">
  <defs>
    <style>
      .cls-1 {
        fill: #30308c;
      }
    </style>
  </defs>
  <path class="cls-1" d="m18.33,25.92c-1.14-.26-2.29-.49-3.42-.78C7.24,23.13,1.15,16.09.27,8.25c-.04-.34-.07-.67-.14-1-.54-2.45.92-3.9,2.68-5.08,1.45-.98,3.6-.23,4.31,1.51.5,1.24.81,2.57,1.07,3.89.22,1.11-.27,2.06-1.13,2.77-.6.5-.73.97-.43,1.73,1.41,3.57,3.88,6.02,7.47,7.36.59.22.99.18,1.4-.32,1.1-1.35,2.5-1.59,4.11-1.07.74.24,1.5.39,2.24.63,2.5.82,3.18,3.53,1.32,5.38-.68.68-1.47,1.26-2.21,1.89h-2.64Z"/>
  <path class="cls-1" d="m13.07,1.56V.12c5.49-.59,12.96,4.58,12.91,12.75h-1.54c-.13-3.07-1.19-5.78-3.39-7.97-2.18-2.17-4.85-3.22-7.98-3.35Z"/>
  <path class="cls-1" d="m21.08,12.89h-1.47c-.43-3.84-2.58-6.05-6.51-6.49-.01-.28-.04-.55-.04-.81,0-.23.03-.46.05-.68,4.35-.11,8.15,3.69,7.97,7.98Z"/>
  <path class="cls-1" d="m16.25,12.89h-1.23c-.66-.67-1.19-1.22-1.72-1.77-.07.05-.09-.7-.2-1.32,1.77-.05,3.02,1.17,3.15,3.09Z"/>
</svg>