<?xml version="1.0" encoding="UTF-8"?>
<svg id="Layer_1" data-name="Layer 1" xmlns="http://www.w3.org/2000/svg" viewBox="0 0 75.52 97.72">
  <defs>
    <style>
      .cls-1 {
        fill: #dd9a04;
      }
    </style>
  </defs>
  <path class="cls-1" d="m74.04,27.53c-.12.65-.28,1.63-.51,2.59-.57,2.37-.33,4.6.86,6.75,1.89,3.4,1.36,7.29-1.25,10.19-.71.79-1.34,1.67-1.88,2.58-.83,1.39-.86,2.98-.91,4.55-.09,3.33-1.59,5.84-4.49,7.49-.49.28-1.04.5-1.58.68-2.46.8-4.23,2.36-5.41,4.66-1.56,3.04-4.07,4.69-7.5,4.85-.83.04-1.68-.11-2.52-.18-2.26-.21-4.32.28-6.18,1.62-2.54,1.83-5.32,2.26-8.27,1.22-.74-.26-1.46-.68-2.1-1.14-2.24-1.62-4.67-2.28-7.46-1.91-3.67.49-7.15-1.45-8.76-4.81-1.15-2.41-2.92-4.06-5.42-4.98-2.63-.97-4.4-2.82-5.41-5.43-.41-1.06-.49-2.15-.47-3.26.03-1.19-.04-2.36-.42-3.51-.45-1.33-1.24-2.44-2.16-3.48C.64,44.24-.11,42.17.01,39.8c.07-1.37.48-2.62,1.16-3.8.82-1.41,1.43-2.88,1.39-4.54-.02-.8-.04-1.62-.26-2.38-1.17-3.98.34-7.94,3.77-10.06,1.58-.97,2.78-2.27,3.53-3.96.31-.69.5-1.44.7-2.17.54-2.03,1.63-3.68,3.35-4.92,1.24-.89,2.62-1.43,4.14-1.54,2.77-.21,5.04-1.31,6.89-3.41C27.31.06,30.88-.77,34.6.74c2.52,1.02,4.96,1.02,7.48.1,3.7-1.34,7.14-.47,9.78,2.49.92,1.04,1.9,1.98,3.13,2.66,1.03.57,2.14.78,3.29.93,3.42.44,5.92,2.15,7.29,5.37.27.63.42,1.31.55,1.98.39,2,1.46,3.59,2.98,4.9.52.45,1.1.82,1.64,1.25,2.17,1.74,3.22,4.02,3.31,7.11Zm-63.21,9.37c-.2,16.35,12.74,27.4,26.64,27.55,15.21.17,27.33-12.19,27.29-26.93-.04-14.25-11.23-26.6-26.55-26.85-15.55-.26-27.1,12.11-27.37,26.23Z"/>
  <path class="cls-1" d="m12.2,66.25c.34.62.7,1.24,1.03,1.86,1.76,3.34,4.45,5.5,8.16,6.29,1,.21,2.05.17,3.08.21.49.02.99-.07,1.49-.09,2.03-.11,3.31.37,4.93,1.88-.52,1.75-1.05,3.53-1.58,5.32-.54,1.79-1.07,3.58-1.62,5.37-.53,1.75-1.02,3.52-1.62,5.25-.6,1.74-.84,3.61-1.74,5.38-1.55-1.83-2.98-3.52-4.41-5.21-1.04-1.23-2.11-2.42-3.1-3.69-.46-.59-.9-.65-1.58-.44-3.14.96-6.3,1.88-9.46,2.81-.5.15-1.02.26-1.73.43.68-2.29,1.3-4.39,1.94-6.49.64-2.12,1.28-4.24,1.93-6.35.64-2.08,1.26-4.16,1.92-6.24.66-2.08,1.12-4.23,1.91-6.27.15,0,.29-.02.44-.03Z"/>
  <path class="cls-1" d="m49.35,97.71c-1.57-5.24-3.06-10.2-4.55-15.17-.47-1.57-.96-3.14-1.43-4.71-.3-.97-.29-.96.54-1.58,1.61-1.21,3.35-1.66,5.38-1.38,4.73.65,8.57-.97,11.45-4.78.34-.45.58-.99.87-1.47.23-.37.47-.73.83-1.27,2.47,8.16,4.87,16.1,7.31,24.2-.47-.08-.76-.11-1.04-.18-3.38-.97-6.76-1.94-10.13-2.95-.73-.22-1.2-.08-1.69.5-2.19,2.65-4.41,5.28-6.63,7.9-.23.27-.52.5-.92.89Z"/>
  <path class="cls-1" d="m34.58,41.86c.31-.42.55-.81.86-1.15,4.2-4.6,8.42-9.19,12.63-13.78.41-.45.82-.91,1.27-1.33,1.56-1.47,3.69-1.51,5.29-.11,1.48,1.28,1.75,3.57.54,5.19-.64.85-1.4,1.62-2.12,2.41-4.96,5.41-9.92,10.82-14.89,16.22-.23.25-.47.51-.73.73-1.37,1.21-3.25,1.38-4.77.36-.82-.55-1.57-1.21-2.35-1.84-2.56-2.06-5.12-4.12-7.67-6.21-1.61-1.32-2.06-2.95-1.37-4.68.83-2.07,3.22-3.03,5.23-2.05.58.28,1.1.69,1.6,1.09,1.85,1.48,3.69,2.98,5.54,4.47.21.17.43.31.94.68Z"/>
</svg>