<?xml version="1.0" encoding="UTF-8"?>
<svg id="Layer_1" data-name="Layer 1" xmlns="http://www.w3.org/2000/svg" viewBox="0 0 52.21 67.56">
  <defs>
    <style>
      .cls-1 {
        fill: #2b2392;
      }
    </style>
  </defs>
  <path class="cls-1" d="m51.18,19.03c-.09.45-.19,1.13-.35,1.79-.39,1.64-.23,3.18.6,4.67,1.31,2.35.94,5.04-.87,7.05-.49.54-.93,1.15-1.3,1.78-.57.96-.6,2.06-.63,3.15-.06,2.3-1.1,4.03-3.1,5.18-.34.19-.72.34-1.09.47-1.7.55-2.92,1.63-3.74,3.22-1.08,2.1-2.81,3.24-5.19,3.35-.58.03-1.16-.07-1.74-.13-1.56-.15-2.99.19-4.27,1.12-1.76,1.27-3.68,1.56-5.72.84-.51-.18-1.01-.47-1.45-.79-1.55-1.12-3.23-1.57-5.15-1.32-2.54.34-4.94-1.01-6.05-3.32-.8-1.66-2.02-2.8-3.74-3.44-1.82-.67-3.04-1.95-3.74-3.75-.28-.74-.34-1.49-.32-2.26.02-.82-.02-1.63-.29-2.42-.31-.92-.86-1.69-1.49-2.4C.44,30.58-.08,29.16,0,27.51c.05-.94.33-1.81.8-2.62.56-.97.99-1.99.96-3.14-.01-.55-.03-1.12-.18-1.64-.81-2.75.23-5.49,2.61-6.95,1.09-.67,1.92-1.57,2.44-2.74.21-.48.35-.99.48-1.5.37-1.41,1.13-2.55,2.32-3.4.86-.61,1.81-.99,2.86-1.07,1.92-.14,3.48-.9,4.77-2.36C18.88.04,21.35-.53,23.92.51c1.74.7,3.43.7,5.17.07,2.56-.93,4.94-.33,6.76,1.72.64.72,1.31,1.37,2.16,1.84.71.39,1.48.54,2.27.64,2.36.31,4.09,1.49,5.04,3.71.18.43.29.9.38,1.37.27,1.39,1.01,2.48,2.06,3.38.36.31.76.57,1.13.87,1.5,1.2,2.22,2.78,2.29,4.92ZM7.49,25.5c-.14,11.31,8.81,18.94,18.41,19.05,10.51.11,18.89-8.43,18.86-18.62-.03-9.85-7.76-18.39-18.36-18.56-10.75-.18-18.74,8.37-18.92,18.13Z"/>
  <path class="cls-1" d="m8.44,45.8c.24.43.48.85.71,1.29,1.22,2.31,3.07,3.8,5.64,4.35.69.15,1.42.12,2.13.15.34.01.69-.05,1.03-.06,1.4-.07,2.29.26,3.41,1.3-.36,1.21-.72,2.44-1.09,3.68-.37,1.24-.74,2.48-1.12,3.71-.37,1.21-.71,2.43-1.12,3.63-.41,1.2-.58,2.49-1.2,3.72-1.07-1.27-2.06-2.44-3.05-3.6-.72-.85-1.46-1.68-2.14-2.55-.32-.41-.62-.45-1.09-.3-2.17.67-4.36,1.3-6.54,1.94-.35.1-.7.18-1.2.3.47-1.58.9-3.04,1.34-4.49.44-1.47.89-2.93,1.34-4.39.44-1.44.87-2.88,1.33-4.31.45-1.44.78-2.92,1.32-4.33.1,0,.2-.01.3-.02Z"/>
  <path class="cls-1" d="m34.11,67.55c-1.08-3.62-2.11-7.05-3.14-10.49-.33-1.09-.66-2.17-.99-3.25-.2-.67-.2-.66.38-1.09,1.11-.84,2.32-1.15,3.72-.95,3.27.45,5.92-.67,7.91-3.31.24-.31.4-.68.6-1.02.16-.26.33-.51.57-.88,1.7,5.64,3.36,11.13,5.05,16.73-.32-.06-.53-.07-.72-.13-2.34-.67-4.67-1.34-7-2.04-.51-.15-.83-.06-1.17.35-1.51,1.83-3.05,3.65-4.59,5.46-.16.19-.36.35-.64.62Z"/>
  <path class="cls-1" d="m23.9,28.94c.21-.29.38-.56.59-.8,2.91-3.18,5.82-6.35,8.73-9.53.29-.31.57-.63.88-.92,1.08-1.02,2.55-1.04,3.66-.08,1.02.89,1.21,2.47.37,3.59-.44.59-.97,1.12-1.47,1.66-3.43,3.74-6.86,7.48-10.29,11.21-.16.17-.32.35-.5.51-.95.84-2.25.95-3.3.25-.57-.38-1.09-.84-1.62-1.27-1.77-1.43-3.54-2.85-5.3-4.29-1.11-.91-1.43-2.04-.94-3.24.58-1.43,2.23-2.09,3.62-1.42.4.19.76.48,1.11.76,1.28,1.02,2.55,2.06,3.83,3.09.14.12.3.22.65.47Z"/>
</svg>