<?xml version="1.0" encoding="UTF-8"?>
<svg id="Layer_1" data-name="Layer 1" xmlns="http://www.w3.org/2000/svg" viewBox="0 0 57 57">
  <defs>
    <style>
      .cls-1 {
        fill: #dd9a04;
      }
    </style>
  </defs>
  <path class="cls-1" d="m38.54,52.86c-2.15-.49-4.32-.92-6.45-1.48-14.46-3.8-25.94-17.07-27.59-31.85-.07-.63-.12-1.27-.26-1.89-1.02-4.62,1.74-7.34,5.05-9.58,2.73-1.85,6.79-.43,8.12,2.84.95,2.33,1.52,4.85,2.02,7.33.42,2.1-.51,3.89-2.13,5.23-1.13.94-1.38,1.83-.81,3.27,2.65,6.73,7.31,11.35,14.09,13.87,1.1.41,1.88.34,2.64-.6,2.07-2.54,4.71-3,7.74-2.02,1.39.45,2.84.73,4.22,1.18,4.72,1.55,5.99,6.66,2.49,10.13-1.29,1.28-2.77,2.38-4.16,3.56h-4.97Z"/>
  <path class="cls-1" d="m28.64,6.93v-2.71c10.35-1.11,24.43,8.63,24.34,24.04h-2.9c-.24-5.79-2.24-10.9-6.39-15.02-4.11-4.08-9.15-6.08-15.05-6.31Z"/>
  <path class="cls-1" d="m43.72,28.3h-2.77c-.81-7.23-4.86-11.4-12.27-12.23-.03-.53-.07-1.03-.07-1.53,0-.43.06-.87.09-1.28,8.2-.21,15.36,6.96,15.03,15.04Z"/>
  <path class="cls-1" d="m34.63,28.3h-2.33c-1.24-1.27-2.24-2.3-3.24-3.33-.12.09-.25.19-.37.28v-2.78c3.34-.09,5.7,2.2,5.94,5.83Z"/>
</svg>