<?xml version="1.0" encoding="UTF-8"?>
<svg id="Layer_1" data-name="Layer 1" xmlns="http://www.w3.org/2000/svg" viewBox="0 0 57 57">
  <defs>
    <style>
      .cls-1 {
        fill: #dd9a04;
      }

      .cls-2 {
        fill: none;
        stroke: #dd9a04;
        stroke-miterlimit: 10;
      }
    </style>
  </defs>
  <path class="cls-1" d="m27.31,1.99c.8,0,1.61,0,2.41,0,.57.12,1.14.25,1.71.35,6.3,1.16,11.37,7.09,11.79,13.65.23,3.58-.82,6.83-2.17,10.02-2.55,6.05-6.01,11.56-9.73,16.9-.91,1.31-1.82,2.62-2.72,3.93h-.16c-.11-.21-.2-.43-.33-.63-1.48-2.12-3.02-4.19-4.44-6.35-3.71-5.62-7.06-11.43-9.17-17.94-2.41-7.44,1.35-15.94,8.52-18.76,1.38-.54,2.87-.8,4.31-1.18Zm1.17,22.66c4.07,0,7.34-3.32,7.35-7.44,0-4.1-3.26-7.5-7.2-7.5-4.18,0-7.42,3.28-7.41,7.51.01,4.09,3.28,7.43,7.26,7.43Z"/>
  <ellipse class="cls-2" cx="28.5" cy="46.6" rx="14.75" ry="8.42"/>
</svg>