<?xml version="1.0" encoding="UTF-8"?>
<svg id="Layer_1" data-name="Layer 1" xmlns="http://www.w3.org/2000/svg" viewBox="0 0 56.8 61.12">
  <defs>
    <style>
      .cls-1 {
        fill: #2e308c;
      }
    </style>
  </defs>
  <path class="cls-1" d="m56.8,32.82c-.04.08-.12.15-.13.24-.11,1.52-.71,2.87-1.48,4.15-.58.97-1.26,1.89-2.1,2.65-.45.41-.95.77-1.42,1.16-.4.34-.9.46-1.38.45-1.48-.02-2.68-.58-3.43-1.95-.67-1.24-1.08-2.56-1.26-3.94-.11-.87,0-1.74.19-2.6.05-.25.09-.51.17-.76.41-1.39,1.28-2.4,2.55-3.07,1.2-.63,2.5-.94,3.82-1.2,1-.2,1.87.02,2.7.48,1.04.56,1.47,1.54,1.64,2.66.02.15.09.3.14.45v1.28Z"/>
  <path class="cls-1" d="m22.99,0c.17.08.32.18.5.24.98.34,1.82.88,2.56,1.6.49.48.94.99,1.31,1.57.37.59.58,1.24.73,1.9.13.56-.07.78-.67.8-.61.02-1.23,0-1.85,0-.56.01-1.13-.07-1.69.12-.15.05-.33.02-.49.01-.49-.02-.59-.09-.71-.59-.36-1.53-.73-3.06-1.06-4.6-.1-.45.15-.81.52-1.07.28,0,.57,0,.85,0Z"/>
  <path class="cls-1" d="m44.78,44.75c-.28,2.95-.11,5.86-.22,8.76-.04,1.11-.05,2.21-.12,3.32-.15,2.23-1.67,3.76-3.46,4.13-1.48.31-2.92.16-4.29-.43-1.45-.62-2.85-1.37-4.28-2.05-1.28-.61-2.62-1.02-4.02-1.25-1.25-.2-2.51-.19-3.74-.08-1.32.12-2.64.13-3.96.08-1.36-.05-2.7-.3-4.02-.64-1.08-.29-2.08-.72-3.01-1.35-.93-.63-1.56-1.49-2.02-2.49-.52-1.13-.73-2.33-.71-3.57,0-.31,0-.62,0-.92-.05-1.53.27-2.99.71-4.44.92-3.02,2.5-5.69,4.39-8.18.78-1.03,1.67-1.99,2.6-2.89,1.58-1.53,3.33-2.85,5.36-3.76.86-.39,1.76-.59,2.7-.75,1.4-.24,2.72.04,4.02.42,1.06.31,2.11.67,3.11,1.14,1.48.69,2.87,1.54,4.08,2.64.61.56,1.25,1.08,1.81,1.69.65.71,1.24,1.48,1.84,2.23.91,1.15,1.61,2.43,2.33,3.7.45.79.72,1.63.73,2.55.01.73.12,1.45.18,2.13Z"/>
  <path class="cls-1" d="m39.61,12.77c1.57.04,3.29.4,4.89,1.19,1.8.88,2.81,2.33,3.1,4.35.16,1.11.11,2.16-.19,3.21-.45,1.53-1.29,2.83-2.59,3.79-.93.68-1.89,1.32-2.87,1.93-.83.53-1.77.74-2.76.77-1.03.03-2.02-.14-2.98-.46-.73-.24-1.32-.67-1.42-1.5-.05-.4-.05-.81,0-1.2.11-.86.31-1.71.38-2.57.06-.7,0-1.41-.05-2.12-.06-1.08-.4-2.12-.6-3.18-.18-.95.2-1.81.82-2.55,1.06-1.25,2.46-1.66,4.27-1.66Z"/>
  <path class="cls-1" d="m12.25,13.58c.52.06.99.06,1.44.17.9.23,1.43.89,1.74,1.72.12.32.15.69.17,1.04.06,1.06.2,2.1.51,3.12.47,1.5.97,3,1.45,4.5.05.16.09.32.17.46.44.72.47,1.52.41,2.33-.02.25-.07.53-.21.74-.67,1.03-1.51,1.87-2.75,2.18-1.38.34-2.72.17-3.99-.43-1.35-.64-2.59-1.45-3.62-2.55-1.28-1.36-2.25-2.93-2.59-4.78-.44-2.45.11-4.63,1.89-6.49,1.04-1.09,2.29-1.61,3.72-1.8.56-.07,1.12-.13,1.64-.19Z"/>
  <path class="cls-1" d="m24.77,8.52c1.09-.05,2.16.03,3.2.41,1.51.54,2.49,1.57,2.77,3.13.17.93.4,1.9.09,2.87-.04.13-.03.28-.02.42.04,1-.21,1.96-.35,2.94-.1.72-.24,1.43-.37,2.15-.13.67-.53,1.2-.92,1.73-.62.85-1.52,1.06-2.48,1.13-.42.03-.85.03-1.28,0-.57-.04-1.12-.19-1.59-.52-.67-.47-1.39-.91-2-1.45-.74-.66-1.3-1.49-1.79-2.35-.67-1.18-1.14-2.46-1.26-3.79-.11-1.16-.21-2.36.11-3.52.3-1.09,1.06-1.8,2-2.36.96-.58,2-.81,3.11-.77.26,0,.52,0,.78,0Z"/>
  <path class="cls-1" d="m.5,36.15c.05-1.15.55-1.82,1.64-2.23,1.14-.42,2.28-.53,3.46-.26.6.13,1.1.44,1.52.85,1.32,1.29,2.61,2.6,3.92,3.9.75.75.77,2.07.01,2.88-.53.56-.99,1.19-1.51,1.77-.67.75-1.44,1.29-2.49,1.45-.6.09-1.16.07-1.74-.05-.71-.15-1.34-.47-1.78-1.06-.67-.88-1.33-1.77-1.79-2.79-.49-1.1-.92-2.21-1.06-3.42-.04-.35-.12-.69-.18-1.04Z"/>
  <path class="cls-1" d="m.91,33.14c-.22-.04-.46-.08-.68-.14-.18-.05-.26-.18-.22-.38.14-.73.24-1.48.4-2.21.21-.99.73-1.82,1.37-2.59.38-.47.87-.62,1.45-.55.36.04.54.22.59.58.19,1.3.37,2.59.56,3.89.1.71,0,.84-.76.94-.63.09-1.24.21-1.87.32-.28.05-.55.09-.85.14Z"/>
  <path class="cls-1" d="m10.7,5.82c.48-.01.56.04.65.5.16.75.28,1.51.42,2.27.07.39.13.78.2,1.17.07.39-.01.63-.33.72-.92.26-1.85.5-2.79.72-.17.04-.38,0-.56-.04-.18-.05-.36-.14-.35-.38.04-.86-.14-1.74.21-2.58.44-1.06,1.24-1.74,2.18-2.31.06-.04.13-.05.2-.07.07-.01.14-.01.16-.01Z"/>
  <path class="cls-1" d="m53.06,26.86c-.61,0-1.23.01-1.84,0-.51-.02-.61-.21-.4-.68.08-.17.17-.34.25-.51.41-.8.46-1.61.07-2.44-.11-.23-.3-.47-.08-.72.21-.23.52-.26.79-.19.31.08.63.22.9.39,1.29.82,2.27,1.89,2.68,3.4.16.57.05.73-.54.74-.61.01-1.23,0-1.84,0h0Z"/>
  <path class="cls-1" d="m43.45,10.56c-.01.64-.23.8-.77.67-.75-.18-1.49-.41-2.25-.55-.45-.08-.66-.33-.79-.7-.16-.47-.29-.94-.42-1.42-.14-.5-.26-1-.4-1.49-.07-.26-.14-.53.08-.73.24-.21.52-.33.85-.18.17.08.37.11.5.23.82.74,1.65,1.48,2.41,2.27.52.54.64,1.29.79,1.88Z"/>
</svg>